<svg width="12" height="11" viewBox="0 0 12 11" fill="none" xmlns="http://www.w3.org/2000/svg">
<path d="M9.66084 3.29641L1.58867 10.3659C1.40676 10.5248 1.1906 10.6042 0.940169 10.6042C0.690349 10.6042 0.474484 10.5248 0.292576 10.3659C0.110668 10.207 0.0197144 10.0183 0.0197144 9.79956C0.0197144 9.58139 0.110668 9.39287 0.292576 9.234L8.38748 2.18436H1.47498C1.21728 2.18436 1.00111 2.10836 0.826476 1.95638C0.652451 1.80387 0.565438 1.61509 0.565438 1.39003C0.565438 1.16497 0.652451 0.976186 0.826476 0.823675C1.00111 0.671694 1.21728 0.595703 1.47498 0.595703H10.5704C10.8281 0.595703 11.0439 0.671694 11.218 0.823675C11.3926 0.976186 11.4799 1.16497 11.4799 1.39003V9.33329C11.4799 9.55835 11.3926 9.74687 11.218 9.89885C11.0439 10.0514 10.8281 10.1276 10.5704 10.1276C10.3127 10.1276 10.0968 10.0514 9.92279 9.89885C9.74816 9.74687 9.66084 9.55835 9.66084 9.33329V3.29641Z" fill="white"/>
</svg>
