<svg width="12" height="11" viewBox="0 0 12 11" fill="none" xmlns="http://www.w3.org/2000/svg">
<path d="M9.66085 3.29641L1.58869 10.3659C1.40678 10.5248 1.19061 10.6042 0.940184 10.6042C0.690364 10.6042 0.474499 10.5248 0.292591 10.3659C0.110683 10.207 0.0197296 10.0183 0.0197296 9.79956C0.0197296 9.58139 0.110683 9.39287 0.292591 9.234L8.3875 2.18436H1.47499C1.21729 2.18436 1.00112 2.10836 0.826492 1.95638C0.652466 1.80387 0.565454 1.61509 0.565454 1.39003C0.565454 1.16497 0.652466 0.976186 0.826492 0.823675C1.00112 0.671694 1.21729 0.595703 1.47499 0.595703H10.5704C10.8281 0.595703 11.044 0.671694 11.218 0.823675C11.3926 0.976186 11.4799 1.16497 11.4799 1.39003V9.33329C11.4799 9.55835 11.3926 9.74687 11.218 9.89885C11.044 10.0514 10.8281 10.1276 10.5704 10.1276C10.3127 10.1276 10.0968 10.0514 9.9228 9.89885C9.74817 9.74687 9.66085 9.55835 9.66085 9.33329V3.29641Z" fill="black"/>
</svg>
