<svg width="196" height="196" viewBox="0 0 196 196" fill="none" xmlns="http://www.w3.org/2000/svg">
<circle cx="98" cy="98" r="98" fill="url(#paint0_radial_1_4736)"/>
<circle cx="98" cy="98" r="98" fill="url(#paint1_radial_1_4736)"/>
<mask id="mask0_1_4736" style="mask-type:luminance" maskUnits="userSpaceOnUse" x="48" y="48" width="100" height="100">
<path d="M148 48H48V148H148V48Z" fill="white"/>
</mask>
<g mask="url(#mask0_1_4736)">
<path d="M85.4483 64.9263H73.4046L66.4419 92.5083H78.4855L85.4483 64.9263Z" fill="#677F91"/>
</g>
<mask id="mask1_1_4736" style="mask-type:luminance" maskUnits="userSpaceOnUse" x="48" y="48" width="100" height="100">
<path d="M148 48H48.0001V148H148V48Z" fill="white"/>
</mask>
<g mask="url(#mask1_1_4736)">
<path d="M100.239 80.1721H65.802C64.8234 80.1721 63.9954 79.3114 63.9954 78.2049V52.6721C63.9954 51.6065 64.7857 50.7049 65.802 50.7049H100.277C101.255 50.7049 102.083 51.5656 102.083 52.6721V78.2049C102.046 79.2704 101.256 80.1721 100.239 80.1721Z" fill="#677F91"/>
</g>
<mask id="mask2_1_4736" style="mask-type:luminance" maskUnits="userSpaceOnUse" x="48" y="48" width="100" height="100">
<path d="M148 48H48.0001V148H148V48Z" fill="white"/>
</mask>
<g mask="url(#mask2_1_4736)">
<path d="M101.707 80.1721H67.2321C66.2536 80.1721 65.4256 79.3114 65.4256 78.2049V52.6721C65.4256 51.6065 66.216 50.7049 67.2321 50.7049H101.707C102.686 50.7049 103.514 51.5656 103.514 52.6721V78.2049C103.514 79.2704 102.723 80.1721 101.707 80.1721Z" fill="#C2D8DE"/>
</g>
<mask id="mask3_1_4736" style="mask-type:luminance" maskUnits="userSpaceOnUse" x="48" y="48" width="100" height="100">
<path d="M148 48H48V148H148V48Z" fill="white"/>
</mask>
<g mask="url(#mask3_1_4736)">
<path d="M102.309 52.2212H67.2699V75.6638H102.309V52.2212Z" fill="#40336F"/>
</g>
<mask id="mask4_1_4736" style="mask-type:luminance" maskUnits="userSpaceOnUse" x="48" y="48" width="100" height="100">
<path d="M148 48H48V148H148V48Z" fill="white"/>
</mask>
<g mask="url(#mask4_1_4736)">
<path d="M100.352 55.5H69.0764V73.9836H100.352V55.5Z" fill="#FEFEFE"/>
</g>
<mask id="mask5_1_4736" style="mask-type:luminance" maskUnits="userSpaceOnUse" x="48" y="48" width="100" height="100">
<path d="M148 48H48V148H148V48Z" fill="white"/>
</mask>
<g mask="url(#mask5_1_4736)">
<path d="M84.7259 69.4468C87.2099 66.742 87.2099 62.3566 84.7259 59.6517C82.242 56.9469 78.2148 56.9469 75.7309 59.6517C73.2469 62.3566 73.2469 66.742 75.7309 69.4468C78.2148 72.1516 82.242 72.1516 84.7259 69.4468Z" fill="#FDBD52"/>
</g>
<mask id="mask6_1_4736" style="mask-type:luminance" maskUnits="userSpaceOnUse" x="48" y="48" width="100" height="100">
<path d="M148 48H48V148H148V48Z" fill="white"/>
</mask>
<g mask="url(#mask6_1_4736)">
<path d="M94.2913 67.565C96.031 64.2416 94.967 60.0118 91.915 58.1176C88.8631 56.2233 84.9788 57.3818 83.2393 60.7052C81.4997 64.0286 82.5636 68.2583 85.6156 70.1526C88.6675 72.0468 92.5518 70.8883 94.2913 67.565Z" fill="#EF4C44"/>
</g>
<mask id="mask7_1_4736" style="mask-type:luminance" maskUnits="userSpaceOnUse" x="48" y="48" width="100" height="100">
<path d="M148 48H48V148H148V48Z" fill="white"/>
</mask>
<g mask="url(#mask7_1_4736)">
<path d="M84.6955 69.4345C85.8622 68.164 86.5773 66.4427 86.5773 64.5164C86.5773 62.3853 85.674 60.4591 84.2815 59.1886C83.1147 60.4591 82.3997 62.1803 82.3997 64.1066C82.3997 66.2788 83.303 68.164 84.6955 69.4345Z" fill="#7FD2F7"/>
</g>
<mask id="mask8_1_4736" style="mask-type:luminance" maskUnits="userSpaceOnUse" x="48" y="48" width="100" height="100">
<path d="M148 48H48V148H148V48Z" fill="white"/>
</mask>
<g mask="url(#mask8_1_4736)">
<path d="M100.352 53.9017H69.0764V55.459H100.352V53.9017Z" fill="#FDBD52"/>
</g>
<mask id="mask9_1_4736" style="mask-type:luminance" maskUnits="userSpaceOnUse" x="48" y="48" width="100" height="100">
<path d="M148 48H48.0001V148H148V48Z" fill="white"/>
</mask>
<g mask="url(#mask9_1_4736)">
<path opacity="0.32" d="M90.3786 52.2212L78.9748 75.6638H102.309V52.2212H90.3786Z" fill="#FEFEFE"/>
</g>
<mask id="mask10_1_4736" style="mask-type:luminance" maskUnits="userSpaceOnUse" x="48" y="48" width="100" height="100">
<path d="M148 48H48.0001V148H148V48Z" fill="white"/>
</mask>
<g mask="url(#mask10_1_4736)">
<path d="M87.7818 92.5081H66.442V94.5162H87.7818V92.5081Z" fill="#C2D8DE"/>
</g>
<mask id="mask11_1_4736" style="mask-type:luminance" maskUnits="userSpaceOnUse" x="48" y="48" width="100" height="100">
<path d="M148 48.0001H48V148H148V48.0001Z" fill="white"/>
</mask>
<g mask="url(#mask11_1_4736)">
<path d="M69.5656 80.1721H81.6092L81.0071 82.5901H68.9634L69.5656 80.1721Z" fill="#677F91"/>
</g>
<mask id="mask12_1_4736" style="mask-type:luminance" maskUnits="userSpaceOnUse" x="48" y="48" width="100" height="100">
<path d="M148 48H48V148H148V48Z" fill="white"/>
</mask>
<g mask="url(#mask12_1_4736)">
<path d="M131.967 86.6067C131.967 86.6067 129.558 83.3689 131.177 78.328C132.795 73.287 140.096 69.0657 140.096 69.0657C140.096 69.0657 140.511 85.0083 131.967 86.6067Z" fill="#415369"/>
</g>
<mask id="mask13_1_4736" style="mask-type:luminance" maskUnits="userSpaceOnUse" x="48" y="48" width="100" height="100">
<path d="M148 48H48V148H148V48Z" fill="white"/>
</mask>
<g mask="url(#mask13_1_4736)">
<path d="M131.252 85.2951C131.252 85.2951 126.397 82.7541 125.644 75.2541C124.891 67.7541 131.929 57.6312 131.929 57.6312C131.929 57.6312 141.225 77.6722 131.252 85.2951Z" fill="#276DA3"/>
</g>
<mask id="mask14_1_4736" style="mask-type:luminance" maskUnits="userSpaceOnUse" x="48" y="48" width="100" height="100">
<path d="M148 48.0001H48V148H148V48.0001Z" fill="white"/>
</mask>
<g mask="url(#mask14_1_4736)">
<path d="M130.989 84.3935L131.252 63.7378" stroke="#7FD2F7" stroke-width="5.74553" stroke-miterlimit="10" stroke-linecap="round"/>
</g>
<mask id="mask15_1_4736" style="mask-type:luminance" maskUnits="userSpaceOnUse" x="48" y="48" width="100" height="100">
<path d="M148 48H48V148H148V48Z" fill="white"/>
</mask>
<g mask="url(#mask15_1_4736)">
<path d="M131.102 77.7951L135.354 74.3114" stroke="#7FD2F7" stroke-width="5.74553" stroke-miterlimit="10" stroke-linecap="round"/>
</g>
<mask id="mask16_1_4736" style="mask-type:luminance" maskUnits="userSpaceOnUse" x="48" y="48" width="100" height="100">
<path d="M148 48H48V148H148V48Z" fill="white"/>
</mask>
<g mask="url(#mask16_1_4736)">
<path d="M131.139 70.7048L128.505 67.3032" stroke="#7FD2F7" stroke-width="5.74553" stroke-miterlimit="10" stroke-linecap="round"/>
</g>
<mask id="mask17_1_4736" style="mask-type:luminance" maskUnits="userSpaceOnUse" x="48" y="48" width="100" height="100">
<path d="M148 48H48V148H148V48Z" fill="white"/>
</mask>
<g mask="url(#mask17_1_4736)">
<path d="M130.913 85.9098C130.913 85.9098 127.375 86.0737 124.778 81.9344C122.219 77.836 123.423 69.5164 123.423 69.5164C123.423 69.5164 134.564 78.0819 130.913 85.9098Z" fill="#415369"/>
</g>
<mask id="mask18_1_4736" style="mask-type:luminance" maskUnits="userSpaceOnUse" x="48" y="48" width="100" height="100">
<path d="M148 48H48V148H148V48Z" fill="white"/>
</mask>
<g mask="url(#mask18_1_4736)">
<path d="M131.778 84.3934C131.778 84.3934 131.778 84.3934 126.058 84.3934C125.983 91.1148 128.692 95.2131 128.692 95.2131H131.778H134.865C134.865 95.2131 137.575 91.1148 137.499 84.3934C131.778 84.3934 131.778 84.3934 131.778 84.3934Z" fill="#FDBD52"/>
</g>
<mask id="mask19_1_4736" style="mask-type:luminance" maskUnits="userSpaceOnUse" x="48" y="48" width="100" height="100">
<path d="M148 48H48V148H148V48Z" fill="white"/>
</mask>
<g mask="url(#mask19_1_4736)">
<path opacity="0.31" d="M126.058 84.3934C125.983 91.1148 128.692 95.2131 128.692 95.2131H131.778H132.268C132.268 95.2131 129.558 91.1148 129.633 84.3934C128.805 84.3934 127.638 84.3934 126.058 84.3934Z" fill="#BD65B4"/>
</g>
<mask id="mask20_1_4736" style="mask-type:luminance" maskUnits="userSpaceOnUse" x="48" y="48" width="100" height="100">
<path d="M148 48H48V148H148V48Z" fill="white"/>
</mask>
<g mask="url(#mask20_1_4736)">
<path opacity="0.32" d="M126.058 84.3934C126.058 85.2951 126.096 86.1558 126.171 86.9754H137.425C137.5 86.1558 137.538 85.2951 137.538 84.3934C131.817 84.3934 131.817 84.3934 131.817 84.3934C131.817 84.3934 131.779 84.3934 126.058 84.3934Z" fill="#FEFEFE"/>
</g>
<mask id="mask21_1_4736" style="mask-type:luminance" maskUnits="userSpaceOnUse" x="48" y="48" width="100" height="100">
<path d="M148 48H48V148H148V48Z" fill="white"/>
</mask>
<g mask="url(#mask21_1_4736)">
<path d="M129.633 84.3935L126.058 76.8525" stroke="#7FD2F7" stroke-width="5.74553" stroke-miterlimit="10" stroke-linecap="round"/>
</g>
<mask id="mask22_1_4736" style="mask-type:luminance" maskUnits="userSpaceOnUse" x="48" y="48" width="100" height="100">
<path d="M148 48H48V148H148V48Z" fill="white"/>
</mask>
<g mask="url(#mask22_1_4736)">
<path d="M126.133 86.9754H137.387" stroke="#B5843C" stroke-width="5.74553" stroke-miterlimit="10" stroke-linecap="round"/>
</g>
<mask id="mask23_1_4736" style="mask-type:luminance" maskUnits="userSpaceOnUse" x="48" y="48" width="100" height="101">
<path d="M148 48.0001H48V148H148V48.0001Z" fill="white"/>
</mask>
<g mask="url(#mask23_1_4736)">
<path d="M119.095 101.402H116.498V141.893H119.095V101.402Z" fill="#C2D8DE"/>
</g>
<mask id="mask24_1_4736" style="mask-type:luminance" maskUnits="userSpaceOnUse" x="48" y="48" width="100" height="101">
<path d="M148 48.0001H48V148H148V48.0001Z" fill="white"/>
</mask>
<g mask="url(#mask24_1_4736)">
<path d="M116.498 101.402H114.165V141.893H116.498V101.402Z" fill="#415369"/>
</g>
<mask id="mask25_1_4736" style="mask-type:luminance" maskUnits="userSpaceOnUse" x="48" y="48" width="100" height="100">
<path d="M148 48.0001H48V148H148V48.0001Z" fill="white"/>
</mask>
<g mask="url(#mask25_1_4736)">
<path d="M119.057 101.402H114.165V105.5H119.057V101.402Z" fill="#677F91"/>
</g>
<mask id="mask26_1_4736" style="mask-type:luminance" maskUnits="userSpaceOnUse" x="48" y="48" width="100" height="101">
<path d="M148 48.0001H48.0001V148H148V48.0001Z" fill="white"/>
</mask>
<g mask="url(#mask26_1_4736)">
<path d="M135.242 97.5492H52.2906V101.402H135.242V97.5492Z" fill="#C2D8DE"/>
</g>
<mask id="mask27_1_4736" style="mask-type:luminance" maskUnits="userSpaceOnUse" x="48" y="48" width="100" height="100">
<path d="M148 48H48.0001V148H148V48Z" fill="white"/>
</mask>
<g mask="url(#mask27_1_4736)">
<path d="M138.629 94.5164H48.0001V97.5491H138.629V94.5164Z" fill="#FEFEFE"/>
</g>
<mask id="mask28_1_4736" style="mask-type:luminance" maskUnits="userSpaceOnUse" x="48" y="48" width="100" height="100">
<path d="M148 48.0001H48V148H148V48.0001Z" fill="white"/>
</mask>
<g mask="url(#mask28_1_4736)">
<path d="M52.2905 97.5492H135.279" stroke="#415369" stroke-width="9.72021" stroke-miterlimit="10" stroke-linecap="round"/>
</g>
<mask id="mask29_1_4736" style="mask-type:luminance" maskUnits="userSpaceOnUse" x="48" y="48" width="100" height="101">
<path d="M148 48.0001H48V148H148V48.0001Z" fill="white"/>
</mask>
<g mask="url(#mask29_1_4736)">
<path d="M131.666 101.402H129.069V141.893H131.666V101.402Z" fill="#FEFEFE"/>
</g>
<mask id="mask30_1_4736" style="mask-type:luminance" maskUnits="userSpaceOnUse" x="48" y="48" width="100" height="101">
<path d="M148 48.0001H48V148H148V48.0001Z" fill="white"/>
</mask>
<g mask="url(#mask30_1_4736)">
<path d="M129.069 101.402H126.735V141.893H129.069V101.402Z" fill="#C2D8DE"/>
</g>
<mask id="mask31_1_4736" style="mask-type:luminance" maskUnits="userSpaceOnUse" x="48" y="48" width="100" height="101">
<path d="M148 48.0001H48V148H148V48.0001Z" fill="white"/>
</mask>
<g mask="url(#mask31_1_4736)">
<path d="M68.9258 101.402H66.3289V141.893H68.9258V101.402Z" fill="#FEFEFE"/>
</g>
<mask id="mask32_1_4736" style="mask-type:luminance" maskUnits="userSpaceOnUse" x="48" y="48" width="100" height="101">
<path d="M148 48.0001H48V148H148V48.0001Z" fill="white"/>
</mask>
<g mask="url(#mask32_1_4736)">
<path d="M66.3288 101.402H63.9954V141.893H66.3288V101.402Z" fill="#C2D8DE"/>
</g>
<mask id="mask33_1_4736" style="mask-type:luminance" maskUnits="userSpaceOnUse" x="48" y="48" width="100" height="100">
<path d="M148 48.0001H48V148H148V48.0001Z" fill="white"/>
</mask>
<g mask="url(#mask33_1_4736)">
<path d="M68.8881 101.402H63.9954V105.5H68.8881V101.402Z" fill="#677F91"/>
</g>
<mask id="mask34_1_4736" style="mask-type:luminance" maskUnits="userSpaceOnUse" x="48" y="48" width="100" height="101">
<path d="M148 48.0001H48V148H148V48.0001Z" fill="white"/>
</mask>
<g mask="url(#mask34_1_4736)">
<path d="M60.6458 101.402H58.0488V141.893H60.6458V101.402Z" fill="#C2D8DE"/>
</g>
<mask id="mask35_1_4736" style="mask-type:luminance" maskUnits="userSpaceOnUse" x="48" y="48" width="100" height="101">
<path d="M148 48.0001H48V148H148V48.0001Z" fill="white"/>
</mask>
<g mask="url(#mask35_1_4736)">
<path d="M58.049 101.402H55.7156V141.893H58.049V101.402Z" fill="#415369"/>
</g>
<mask id="mask36_1_4736" style="mask-type:luminance" maskUnits="userSpaceOnUse" x="48" y="48" width="100" height="100">
<path d="M148 48.0001H48V148H148V48.0001Z" fill="white"/>
</mask>
<g mask="url(#mask36_1_4736)">
<path d="M60.6083 101.402H55.7156V105.5H60.6083V101.402Z" fill="#677F91"/>
</g>
<mask id="mask37_1_4736" style="mask-type:luminance" maskUnits="userSpaceOnUse" x="48" y="48" width="100" height="100">
<path d="M148 48.0001H48V148H148V48.0001Z" fill="white"/>
</mask>
<g mask="url(#mask37_1_4736)">
<path d="M131.628 101.402H126.735V105.5H131.628V101.402Z" fill="#677F91"/>
</g>
<mask id="mask38_1_4736" style="mask-type:luminance" maskUnits="userSpaceOnUse" x="48" y="48" width="100" height="100">
<path d="M148 48.0001H48V148H148V48.0001Z" fill="white"/>
</mask>
<g mask="url(#mask38_1_4736)">
<path d="M106.186 137.549V141.853H90.228C90.228 141.853 89.8517 138.492 93.954 137.549C101.067 137.549 106.186 137.549 106.186 137.549Z" fill="#211B3A"/>
</g>
<mask id="mask39_1_4736" style="mask-type:luminance" maskUnits="userSpaceOnUse" x="48" y="48" width="100" height="100">
<path d="M148 48.0001H48V148H148V48.0001Z" fill="white"/>
</mask>
<g mask="url(#mask39_1_4736)">
<path d="M93.5024 108.861C93.0884 110.049 92.8625 111.361 92.9378 112.713L93.9916 137.549H106.186V115.377H108.444L93.5024 108.861Z" fill="#211B3A"/>
</g>
<mask id="mask40_1_4736" style="mask-type:luminance" maskUnits="userSpaceOnUse" x="48" y="48" width="100" height="100">
<path d="M148 48.0001H48.0001V148H148V48.0001Z" fill="white"/>
</mask>
<g mask="url(#mask40_1_4736)">
<path d="M93.8789 101.811L80.6685 102.754C75.8887 103.082 72.2379 107.508 72.4637 112.713L73.5176 137.549H85.7117V115.377H103.589C108.708 115.377 112.923 111.033 113.224 105.459L113.412 101.811H93.8789Z" fill="#40336F"/>
</g>
<mask id="mask41_1_4736" style="mask-type:luminance" maskUnits="userSpaceOnUse" x="48" y="48" width="100" height="100">
<path d="M148 48H48V148H148V48Z" fill="white"/>
</mask>
<g mask="url(#mask41_1_4736)">
<path d="M97.4166 56.4424C97.4166 56.4424 97.0026 57.8768 96.9274 58.7375C97.6048 58.9833 97.6424 58.8604 97.6424 58.8604L97.4166 56.4424Z" fill="#CE7D6F"/>
</g>
<mask id="mask42_1_4736" style="mask-type:luminance" maskUnits="userSpaceOnUse" x="48" y="48" width="100" height="100">
<path d="M148 48H48V148H148V48Z" fill="white"/>
</mask>
<g mask="url(#mask42_1_4736)">
<path d="M104.154 61.3195L104.455 65.09L99.5243 65.8277L100.051 62.631L97.4919 62.4261L101.594 58.8605L103.326 57.1392L104.154 61.3195Z" fill="#F59883"/>
</g>
<mask id="mask43_1_4736" style="mask-type:luminance" maskUnits="userSpaceOnUse" x="48" y="48" width="100" height="100">
<path d="M148 48H48V148H148V48Z" fill="white"/>
</mask>
<g mask="url(#mask43_1_4736)">
<path d="M102.046 59.7212C101.18 59.9671 100.428 60.213 99.7501 60.4589L97.4919 62.4261L100.051 62.672C100.051 62.631 101.858 61.1556 102.046 59.7212Z" fill="#561B1B"/>
</g>
<mask id="mask44_1_4736" style="mask-type:luminance" maskUnits="userSpaceOnUse" x="48" y="48" width="100" height="100">
<path d="M148 48.0001H48V148H148V48.0001Z" fill="white"/>
</mask>
<g mask="url(#mask44_1_4736)">
<path d="M103.627 115.418C108.745 115.418 112.96 111.074 113.261 105.5L113.45 101.852H98.922C98.3574 104.025 96.4004 108.451 89.5505 108.861C80.4425 109.434 78.4101 110.295 78.9747 118.205C79.5392 126.115 85.7492 130.459 85.7492 130.459V115.418H103.627Z" fill="#211B3A"/>
</g>
<mask id="mask45_1_4736" style="mask-type:luminance" maskUnits="userSpaceOnUse" x="48" y="48" width="100" height="100">
<path d="M148 48H48V148H148V48Z" fill="white"/>
</mask>
<g mask="url(#mask45_1_4736)">
<path d="M97.9059 52.4261C97.9059 52.4261 96.8521 58.3277 97.4543 62.3851C100.277 61.6474 100.879 61.1966 102.046 59.7212C102.573 56.8524 102.046 53.7376 102.046 53.7376L97.9059 52.4261Z" fill="#F59883"/>
</g>
<mask id="mask46_1_4736" style="mask-type:luminance" maskUnits="userSpaceOnUse" x="48" y="48" width="100" height="100">
<path d="M148 48H48V148H148V48Z" fill="white"/>
</mask>
<g mask="url(#mask46_1_4736)">
<path opacity="0.42" d="M97.906 52.508C97.793 53.1637 96.8897 58.6145 97.4543 62.385C98.0565 62.2211 98.5457 62.0981 98.9597 61.9342C99.035 61.0735 99.2608 59.1064 100.014 57.8769C100.992 56.2785 100.954 54.1063 100.954 54.1063L100.202 53.1227L98.0941 52.467L97.906 52.508Z" fill="white"/>
</g>
<mask id="mask47_1_4736" style="mask-type:luminance" maskUnits="userSpaceOnUse" x="48" y="48" width="100" height="100">
<path d="M148 48H48V148H148V48Z" fill="white"/>
</mask>
<g mask="url(#mask47_1_4736)">
<path d="M97.793 53.1638C97.793 53.1638 96.9274 51.3605 96.9274 50.09C96.9274 48.8195 97.6048 47.1392 98.9597 48.4917C100.315 49.8031 102.422 50.7458 103.852 51.1556C105.283 51.5654 107.089 54.9261 106.75 57.1392C106.412 59.3933 104.68 60.8278 104.154 61.3195C103.476 59.1474 102.987 58.2868 102.987 58.2868L102.046 54.4753L97.793 53.1638Z" fill="#40336F"/>
</g>
<mask id="mask48_1_4736" style="mask-type:luminance" maskUnits="userSpaceOnUse" x="48" y="48" width="100" height="100">
<path d="M148 48H48V148H148V48Z" fill="white"/>
</mask>
<g mask="url(#mask48_1_4736)">
<path d="M97.793 55.172C97.793 55.172 98.9221 54.7212 99.7124 55.5819" stroke="#40336F" stroke-width="10.3551" stroke-miterlimit="10" stroke-linecap="round"/>
</g>
<mask id="mask49_1_4736" style="mask-type:luminance" maskUnits="userSpaceOnUse" x="48" y="48" width="100" height="100">
<path d="M148 48H48V148H148V48Z" fill="white"/>
</mask>
<g mask="url(#mask49_1_4736)">
<path d="M98.2822 66.4424L99.7877 64.3112C99.7877 64.3112 103.326 63.4506 106.788 64.3112C107.804 66.0736 107.804 66.0736 107.804 66.0736C107.804 66.0736 100.804 65.9096 98.2822 66.4424Z" fill="#FDBD52"/>
</g>
<mask id="mask50_1_4736" style="mask-type:luminance" maskUnits="userSpaceOnUse" x="48" y="48" width="100" height="100">
<path d="M148 48H48V148H148V48Z" fill="white"/>
</mask>
<g mask="url(#mask50_1_4736)">
<path d="M107.804 66.0736C107.804 66.0736 116.95 68.1227 117.176 70.6637C117.402 73.2047 114.428 103.082 114.428 103.082C114.428 103.082 102.234 104.27 93.8788 101.852C91.7335 76.1556 90.6797 69.3932 90.6797 69.3932C90.6797 69.3932 95.1961 66.4834 99.5243 65.8686C103.852 65.2129 107.804 66.0736 107.804 66.0736Z" fill="#FDBD52"/>
</g>
<mask id="mask51_1_4736" style="mask-type:luminance" maskUnits="userSpaceOnUse" x="48" y="48" width="100" height="100">
<path d="M148 48H48.0001V148H148V48Z" fill="white"/>
</mask>
<g mask="url(#mask51_1_4736)">
<path d="M79.7652 86.8523C79.7652 86.8523 75.437 86.2375 74.3832 87.9589C73.8186 88.9014 73.6305 90.5818 73.5552 91.8933C73.5175 93.0408 74.1574 94.1064 75.1735 94.4752L77.9963 95.5408L79.7652 86.8523Z" fill="#F59883"/>
</g>
<mask id="mask52_1_4736" style="mask-type:luminance" maskUnits="userSpaceOnUse" x="48" y="48" width="100" height="100">
<path d="M148 48H48V148H148V48Z" fill="white"/>
</mask>
<g mask="url(#mask52_1_4736)">
<path d="M90.6797 69.3932C90.6797 69.3932 87.8569 71.9343 85.5235 78.8604C83.19 85.7457 82.5879 86.8933 82.5879 86.8933H79.7651C79.7651 86.8933 75.2111 90.5817 77.9962 95.5817C80.0662 96.2375 82.8513 96.8933 85.0719 97.385C87.1419 97.8358 89.2495 96.6063 90.0399 94.4752L93.7659 84.4342C93.8035 84.3932 96.438 71.1555 90.6797 69.3932Z" fill="#FDBD52"/>
</g>
<mask id="mask53_1_4736" style="mask-type:luminance" maskUnits="userSpaceOnUse" x="48" y="48" width="100" height="100">
<path d="M148 48H48V148H148V48Z" fill="white"/>
</mask>
<g mask="url(#mask53_1_4736)">
<path d="M87.1042 91.5652C84.8084 91.5652 82.9265 93.6144 82.9265 96.1144C82.9265 96.4013 82.9642 96.6472 83.0018 96.8932C83.7169 97.0571 84.432 97.221 85.0718 97.3439C87.1418 97.7947 89.2494 96.5652 90.0398 94.4341L90.4538 93.3686C89.7011 92.262 88.4967 91.5652 87.1042 91.5652Z" fill="#FDBD52"/>
</g>
<mask id="mask54_1_4736" style="mask-type:luminance" maskUnits="userSpaceOnUse" x="48" y="48" width="100" height="100">
<path d="M148 48H48V148H148V48Z" fill="white"/>
</mask>
<g mask="url(#mask54_1_4736)">
<path d="M117.176 70.6638C117.101 69.6802 115.67 68.7786 113.977 68.0409H99.5996C97.7554 68.0409 96.2123 69.6802 96.2123 71.7294V99.8031C96.2123 100.951 96.7016 101.975 97.4543 102.672C105.32 103.983 114.391 103.082 114.391 103.082C114.391 103.082 117.402 73.2048 117.176 70.6638Z" fill="#FDBD52"/>
</g>
<mask id="mask55_1_4736" style="mask-type:luminance" maskUnits="userSpaceOnUse" x="48" y="48" width="100" height="100">
<path d="M148 48H48V148H148V48Z" fill="white"/>
</mask>
<g mask="url(#mask55_1_4736)">
<path d="M104.266 58.2868C104.266 59.1475 103.627 59.8442 102.836 59.8442C102.046 59.8442 101.406 59.1475 101.406 58.2868C101.406 57.4262 102.046 56.7294 102.836 56.7294C103.627 56.7294 104.266 57.4262 104.266 58.2868Z" fill="#F59883"/>
</g>
<mask id="mask56_1_4736" style="mask-type:luminance" maskUnits="userSpaceOnUse" x="48" y="48" width="100" height="100">
<path d="M148 48H48V148H148V48Z" fill="white"/>
</mask>
<g mask="url(#mask56_1_4736)">
<path d="M101.707 54.3113C101.707 54.3113 101.218 57.1802 101.218 57.672C101.218 58.1637 102.234 58.0818 102.234 58.0818L102.836 56.7703L102.874 55.2949L102.234 52.7949L101.707 54.3113Z" fill="#40336F"/>
</g>
<mask id="mask57_1_4736" style="mask-type:luminance" maskUnits="userSpaceOnUse" x="48" y="48" width="100" height="100">
<path d="M148 48H48V148H148V48Z" fill="white"/>
</mask>
<g mask="url(#mask57_1_4736)">
<path opacity="0.42" d="M103.852 51.1556C102.422 50.7457 100.315 49.8031 98.9597 48.4916C98.8091 48.3277 98.6586 48.2047 98.5081 48.1638C98.5081 48.1638 99.1855 51.7703 102.272 52.467C105.358 53.2047 105.057 57.3851 105.734 59.6391C106.186 58.9834 106.6 58.1637 106.75 57.1801C107.089 54.8851 105.283 51.5244 103.852 51.1556Z" fill="white"/>
</g>
<mask id="mask58_1_4736" style="mask-type:luminance" maskUnits="userSpaceOnUse" x="48" y="48" width="100" height="100">
<path d="M148 48H48V148H148V48Z" fill="white"/>
</mask>
<g mask="url(#mask58_1_4736)">
<path d="M97.6425 56.5653C97.6425 56.5653 98.3199 56.4014 98.9221 56.7292" stroke="#40336F" stroke-width="5.17796" stroke-miterlimit="10" stroke-linecap="round"/>
</g>
<mask id="mask59_1_4736" style="mask-type:luminance" maskUnits="userSpaceOnUse" x="48" y="48" width="100" height="100">
<path d="M148 48H48V148H148V48Z" fill="white"/>
</mask>
<g mask="url(#mask59_1_4736)">
<path d="M97.3037 60.4999C98.207 60.254 98.9597 59.3524 98.9597 59.3524L97.2661 59.5573C97.2661 59.8442 97.2661 60.172 97.3037 60.4999Z" fill="#FEFEFE"/>
</g>
<mask id="mask60_1_4736" style="mask-type:luminance" maskUnits="userSpaceOnUse" x="48" y="48" width="100" height="100">
<path d="M148 48.0001H48V148H148V48.0001Z" fill="white"/>
</mask>
<g mask="url(#mask60_1_4736)">
<path d="M85.7494 137.549V141.853H69.7915C69.7915 141.853 69.4151 138.492 73.5175 137.549C80.6308 137.549 85.7494 137.549 85.7494 137.549Z" fill="#211B3A"/>
</g>
<mask id="mask61_1_4736" style="mask-type:luminance" maskUnits="userSpaceOnUse" x="48" y="48" width="100" height="100">
<path d="M148 48H48V148H148V48Z" fill="white"/>
</mask>
<g mask="url(#mask61_1_4736)">
<path d="M98.5833 66.0326C98.5833 66.0326 104.756 65.2539 107.804 66.0736" stroke="#EF4C44" stroke-width="9.72021" stroke-miterlimit="10" stroke-linecap="round"/>
</g>
<mask id="mask62_1_4736" style="mask-type:luminance" maskUnits="userSpaceOnUse" x="48" y="48" width="100" height="100">
<path d="M148 48H48V148H148V48Z" fill="white"/>
</mask>
<g mask="url(#mask62_1_4736)">
<path d="M82.5879 86.8523H84.7332" stroke="#EF4C44" stroke-width="9.72021" stroke-miterlimit="10" stroke-linecap="round"/>
</g>
<mask id="mask63_1_4736" style="mask-type:luminance" maskUnits="userSpaceOnUse" x="48" y="48" width="100" height="100">
<path d="M148 48H48V148H148V48Z" fill="white"/>
</mask>
<g mask="url(#mask63_1_4736)">
<path d="M113.261 105.5H97.266C95.4219 105.5 93.8788 103.861 93.8788 101.811V73.7376C93.8788 71.7295 95.3842 70.0491 97.266 70.0491H113.261C115.106 70.0491 116.649 71.6885 116.649 73.7376V101.811C116.611 103.861 115.106 105.5 113.261 105.5Z" fill="#64B1E2"/>
</g>
<mask id="mask64_1_4736" style="mask-type:luminance" maskUnits="userSpaceOnUse" x="48" y="48" width="100" height="100">
<path d="M148 48H48V148H148V48Z" fill="white"/>
</mask>
<g mask="url(#mask64_1_4736)">
<path d="M116.348 105.5H100.352C98.5081 105.5 96.965 103.861 96.965 101.811V73.7376C96.965 71.7295 98.4704 70.0491 100.352 70.0491H116.348C118.192 70.0491 119.735 71.6885 119.735 73.7376V101.811C119.735 103.861 118.23 105.5 116.348 105.5Z" fill="#276DA3"/>
</g>
<mask id="mask65_1_4736" style="mask-type:luminance" maskUnits="userSpaceOnUse" x="48" y="48" width="100" height="100">
<path d="M148 48H48V148H148V48Z" fill="white"/>
</mask>
<g mask="url(#mask65_1_4736)">
<path d="M114.24 112.508H86.1257C84.5073 112.508 83.1901 113.943 83.1901 115.705V115.787C83.1901 117.549 84.5073 118.984 86.1257 118.984H114.24C115.858 118.984 117.176 117.549 117.176 115.787V115.705C117.176 113.943 115.858 112.508 114.24 112.508Z" fill="#276DA3"/>
</g>
<mask id="mask66_1_4736" style="mask-type:luminance" maskUnits="userSpaceOnUse" x="48" y="48" width="100" height="100">
<path d="M148 48.0001H48V148H148V48.0001Z" fill="white"/>
</mask>
<g mask="url(#mask66_1_4736)">
<path d="M109.084 105.5H106.148V112.508H109.084V105.5Z" fill="white"/>
</g>
<mask id="mask67_1_4736" style="mask-type:luminance" maskUnits="userSpaceOnUse" x="48" y="48" width="100" height="100">
<path d="M148 48H48V148H148V48Z" fill="white"/>
</mask>
<g mask="url(#mask67_1_4736)">
<path d="M109.084 105.5H106.148V107.426H109.084V105.5Z" fill="#64B1E2"/>
</g>
<mask id="mask68_1_4736" style="mask-type:luminance" maskUnits="userSpaceOnUse" x="48" y="48" width="100" height="100">
<path d="M148 48H48V148H148V48Z" fill="white"/>
</mask>
<g mask="url(#mask68_1_4736)">
<path d="M100.503 146.156C105.242 146.156 109.084 145.348 109.084 144.352C109.084 143.357 105.242 142.549 100.503 142.549C95.7636 142.549 91.9218 143.357 91.9218 144.352C91.9218 145.348 95.7636 146.156 100.503 146.156Z" fill="white"/>
</g>
<mask id="mask69_1_4736" style="mask-type:luminance" maskUnits="userSpaceOnUse" x="48" y="48" width="100" height="101">
<path d="M148 48.0001H48V148H148V48.0001Z" fill="white"/>
</mask>
<g mask="url(#mask69_1_4736)">
<path d="M91.9218 144.353C91.9218 144.353 94.7444 139.312 100.578 139.312C106.412 139.312 109.084 144.353 109.084 144.353H91.9218Z" fill="white"/>
</g>
<mask id="mask70_1_4736" style="mask-type:luminance" maskUnits="userSpaceOnUse" x="48" y="48" width="100" height="100">
<path d="M148 48H48V148H148V48Z" fill="white"/>
</mask>
<g mask="url(#mask70_1_4736)">
<path d="M102.046 118.943H99.1104V144.475H102.046V118.943Z" fill="white"/>
</g>
<mask id="mask71_1_4736" style="mask-type:luminance" maskUnits="userSpaceOnUse" x="48" y="48" width="100" height="100">
<path d="M148 48.0001H48V148H148V48.0001Z" fill="white"/>
</mask>
<g mask="url(#mask71_1_4736)">
<path d="M102.046 118.943H99.1104V123.205H102.046V118.943Z" fill="#64B1E2"/>
</g>
<mask id="mask72_1_4736" style="mask-type:luminance" maskUnits="userSpaceOnUse" x="48" y="48" width="100" height="100">
<path d="M148 48H48V148H148V48Z" fill="white"/>
</mask>
<g mask="url(#mask72_1_4736)">
<path opacity="0.5" d="M103.777 105.5H116.348C118.192 105.5 119.735 103.861 119.735 101.811V73.7377C119.735 73.7377 104.568 88.2049 103.777 105.5Z" fill="#211B3A"/>
</g>
<defs>
<radialGradient id="paint0_radial_1_4736" cx="0" cy="0" r="1" gradientUnits="userSpaceOnUse" gradientTransform="translate(62 19) rotate(67.1736) scale(192.04)">
<stop offset="0.628125" stop-color="#1C68FB"/>
<stop offset="1" stop-color="#1C68FB" stop-opacity="0"/>
</radialGradient>
<radialGradient id="paint1_radial_1_4736" cx="0" cy="0" r="1" gradientUnits="userSpaceOnUse" gradientTransform="translate(123 145.5) rotate(-114.131) scale(121.081)">
<stop stop-color="#5DD6E9"/>
<stop offset="1" stop-color="#5DD6E9" stop-opacity="0"/>
</radialGradient>
</defs>
</svg>
