<svg width="156" height="36" viewBox="0 0 156 36" fill="none" xmlns="http://www.w3.org/2000/svg">
<mask id="mask0_1_4667" style="mask-type:luminance" maskUnits="userSpaceOnUse" x="0" y="6" width="29" height="28">
<path d="M28.8625 6H0V34H28.8625V6Z" fill="white"/>
</mask>
<g mask="url(#mask0_1_4667)">
<path d="M9.94997 15.6526C12.5324 13.1474 13.9755 9.83158 14.0515 6.29474V6H0V19.6316H0.227862C3.87365 19.6316 7.36754 18.1579 9.94997 15.6526Z" fill="#2D61F2"/>
<path d="M4.02556 30.0213C1.51908 27.516 0 24.1265 0 20.6634V20.3687H14.0515V34.0002H13.7476C10.1019 34.0002 6.608 32.5265 4.02556 30.0213Z" fill="#00B67A"/>
<path d="M14.811 19.6316H21.7988C25.6725 19.6316 28.8625 16.5368 28.8625 12.8526C28.8625 9.09474 25.6725 6 21.7988 6H14.811V19.6316Z" fill="#7000FE"/>
</g>
<path d="M36.4628 10.9851V7.18182H54.3818V10.9851H47.7021V29H43.1425V10.9851H36.4628ZM55.5484 29V12.6364H59.9482V15.4915H60.1187C60.417 14.4759 60.9177 13.7088 61.6208 13.1903C62.324 12.6648 63.1336 12.402 64.0498 12.402C64.2771 12.402 64.5221 12.4162 64.7849 12.4446C65.0477 12.473 65.2785 12.5121 65.4774 12.5618V16.5888C65.2643 16.5249 64.9695 16.468 64.5931 16.4183C64.2167 16.3686 63.8722 16.3438 63.5597 16.3438C62.8921 16.3438 62.2955 16.4893 61.77 16.7805C61.2515 17.0646 60.8396 17.4624 60.5342 17.9737C60.2359 18.4851 60.0867 19.0746 60.0867 19.7422V29H55.5484ZM72.0212 29.3089C70.9772 29.3089 70.0468 29.1278 69.23 28.7656C68.4133 28.3963 67.767 27.853 67.2911 27.1357C66.8224 26.4112 66.588 25.5092 66.588 24.4297C66.588 23.5206 66.7549 22.7571 67.0887 22.1392C67.4225 21.5213 67.877 21.0241 68.4523 20.6477C69.0276 20.2713 69.681 19.9872 70.4126 19.7955C71.1512 19.6037 71.9253 19.4688 72.735 19.3906C73.6867 19.2912 74.4537 19.1989 75.0361 19.1136C75.6185 19.0213 76.0411 18.8864 76.3039 18.7088C76.5667 18.5312 76.6981 18.2685 76.6981 17.9205V17.8565C76.6981 17.1818 76.485 16.6598 76.0589 16.2905C75.6398 15.9212 75.0432 15.7365 74.2691 15.7365C73.4523 15.7365 72.8025 15.9176 72.3195 16.2798C71.8366 16.6349 71.517 17.0824 71.3607 17.6222L67.1633 17.2812C67.3763 16.2869 67.7954 15.4276 68.4204 14.7031C69.0454 13.9716 69.8515 13.4105 70.8387 13.0199C71.833 12.6222 72.9836 12.4233 74.2904 12.4233C75.1995 12.4233 76.0695 12.5298 76.9005 12.7429C77.7385 12.956 78.4807 13.2862 79.127 13.7337C79.7805 14.1811 80.2954 14.7564 80.6718 15.4595C81.0482 16.1555 81.2364 16.9901 81.2364 17.9631V29H76.9324V26.7308H76.8046C76.5418 27.2422 76.1903 27.6932 75.7499 28.0838C75.3096 28.4673 74.7805 28.7692 74.1626 28.9893C73.5447 29.2024 72.8309 29.3089 72.0212 29.3089ZM73.3209 26.1768C73.9885 26.1768 74.578 26.0455 75.0894 25.7827C75.6008 25.5128 76.002 25.1506 76.2932 24.696C76.5844 24.2415 76.73 23.7266 76.73 23.1513V21.4148C76.588 21.5071 76.3927 21.5923 76.1441 21.6705C75.9026 21.7415 75.6292 21.8089 75.3238 21.8729C75.0184 21.9297 74.713 21.983 74.4076 22.0327C74.1022 22.0753 73.8252 22.1143 73.5766 22.1499C73.0439 22.228 72.5787 22.3523 72.181 22.5227C71.7833 22.6932 71.4743 22.924 71.2542 23.2152C71.034 23.4993 70.9239 23.8544 70.9239 24.2805C70.9239 24.8984 71.1476 25.3707 71.5951 25.6974C72.0496 26.017 72.6249 26.1768 73.3209 26.1768ZM84.7574 29V12.6364H89.2957V29H84.7574ZM87.0372 10.527C86.3625 10.527 85.7836 10.3033 85.3007 9.85582C84.8248 9.40128 84.5869 8.85795 84.5869 8.22585C84.5869 7.60085 84.8248 7.06463 85.3007 6.61719C85.7836 6.16264 86.3625 5.93537 87.0372 5.93537C87.7119 5.93537 88.2872 6.16264 88.7631 6.61719C89.246 7.06463 89.4875 7.60085 89.4875 8.22585C89.4875 8.85795 89.246 9.40128 88.7631 9.85582C88.2872 10.3033 87.7119 10.527 87.0372 10.527ZM97.4695 19.5398V29H92.9312V12.6364H97.2565V15.5234H97.4482C97.8105 14.5717 98.4177 13.8189 99.27 13.2649C100.122 12.7038 101.156 12.4233 102.37 12.4233C103.506 12.4233 104.497 12.6719 105.342 13.169C106.188 13.6662 106.845 14.3764 107.313 15.2997C107.782 16.2159 108.016 17.3097 108.016 18.581V29H103.478V19.3906C103.485 18.3892 103.229 17.608 102.711 17.0469C102.193 16.4787 101.479 16.1946 100.57 16.1946C99.9589 16.1946 99.4191 16.326 98.9504 16.5888C98.4887 16.8516 98.1265 17.2351 97.8637 17.7393C97.608 18.2365 97.4767 18.8366 97.4695 19.5398ZM111.593 29V12.6364H116.132V29H111.593ZM113.873 10.527C113.198 10.527 112.62 10.3033 112.137 9.85582C111.661 9.40128 111.423 8.85795 111.423 8.22585C111.423 7.60085 111.661 7.06463 112.137 6.61719C112.62 6.16264 113.198 5.93537 113.873 5.93537C114.548 5.93537 115.123 6.16264 115.599 6.61719C116.082 7.06463 116.323 7.60085 116.323 8.22585C116.323 8.85795 116.082 9.40128 115.599 9.85582C115.123 10.3033 114.548 10.527 113.873 10.527ZM124.305 19.5398V29H119.767V12.6364H124.092V15.5234H124.284C124.646 14.5717 125.254 13.8189 126.106 13.2649C126.958 12.7038 127.992 12.4233 129.206 12.4233C130.342 12.4233 131.333 12.6719 132.178 13.169C133.024 13.6662 133.68 14.3764 134.149 15.2997C134.618 16.2159 134.852 17.3097 134.852 18.581V29H130.314V19.3906C130.321 18.3892 130.065 17.608 129.547 17.0469C129.028 16.4787 128.315 16.1946 127.406 16.1946C126.795 16.1946 126.255 16.326 125.786 16.5888C125.325 16.8516 124.962 17.2351 124.7 17.7393C124.444 18.2365 124.313 18.8366 124.305 19.5398ZM145.801 35.4773C144.331 35.4773 143.071 35.2749 142.019 34.87C140.975 34.4723 140.144 33.929 139.527 33.2401C138.909 32.5511 138.507 31.777 138.323 30.9176L142.52 30.353C142.648 30.6797 142.85 30.9851 143.127 31.2692C143.404 31.5533 143.77 31.7805 144.225 31.951C144.686 32.1286 145.247 32.2173 145.908 32.2173C146.895 32.2173 147.708 31.9759 148.348 31.4929C148.994 31.017 149.317 30.218 149.317 29.0959V26.1023H149.125C148.926 26.5568 148.628 26.9865 148.23 27.3913C147.833 27.7962 147.321 28.1264 146.696 28.3821C146.071 28.6378 145.326 28.7656 144.459 28.7656C143.23 28.7656 142.112 28.4815 141.103 27.9134C140.102 27.3381 139.303 26.4609 138.706 25.282C138.117 24.0959 137.822 22.5973 137.822 20.7862C137.822 18.9325 138.124 17.3842 138.728 16.1413C139.331 14.8984 140.134 13.968 141.135 13.3501C142.144 12.7322 143.248 12.4233 144.448 12.4233C145.365 12.4233 146.132 12.5795 146.75 12.892C147.367 13.1974 147.865 13.581 148.241 14.0426C148.625 14.4972 148.919 14.9446 149.125 15.3849H149.296V12.6364H153.802V29.1598C153.802 30.5518 153.461 31.7166 152.779 32.6541C152.098 33.5916 151.153 34.2947 149.946 34.7635C148.745 35.2393 147.364 35.4773 145.801 35.4773ZM145.897 25.3565C146.629 25.3565 147.247 25.1754 147.751 24.8132C148.262 24.4439 148.653 23.9183 148.923 23.2365C149.2 22.5476 149.338 21.7237 149.338 20.7649C149.338 19.8061 149.203 18.9751 148.934 18.272C148.664 17.5618 148.273 17.0114 147.762 16.6207C147.25 16.2301 146.629 16.0348 145.897 16.0348C145.152 16.0348 144.523 16.2372 144.012 16.642C143.5 17.0398 143.113 17.5937 142.85 18.304C142.588 19.0142 142.456 19.8345 142.456 20.7649C142.456 21.7095 142.588 22.5263 142.85 23.2152C143.12 23.897 143.507 24.4261 144.012 24.8026C144.523 25.1719 145.152 25.3565 145.897 25.3565Z" fill="black"/>
</svg>
