<svg width="196" height="196" viewBox="0 0 196 196" fill="none" xmlns="http://www.w3.org/2000/svg">
<circle cx="98" cy="98" r="98" fill="url(#paint0_radial_1_4738)"/>
<circle cx="98" cy="98" r="98" fill="url(#paint1_radial_1_4738)"/>
<path opacity="0.3" d="M133.655 96.0693L91.089 126.185L78.5759 117.305C78.5759 115.825 78.5759 112.35 78.5759 110.934V108.424L116.639 83.9715L133.655 96.0693Z" fill="#E9E2E1"/>
<path opacity="0.3" d="M71.665 83.5855L78.7854 88.9909V91.1145L56.5864 107.331L48 100.831L71.665 83.5855Z" fill="#E9E2E1"/>
<path d="M82.8167 123.032V125.799L75.3298 131.075V128.373L82.8167 123.032Z" fill="#252529"/>
<path d="M75.3298 128.373V131.076L60.0942 120.329L60.1466 117.627L75.3298 128.373Z" fill="#38373E"/>
<path d="M82.8169 123.032L75.33 128.373L60.1467 117.627L67.5813 112.286L82.8169 123.032Z" fill="#424148"/>
<path d="M130.042 95.2971V96.5841L91.2461 124.319V122.968L130.042 95.2971Z" fill="#E9E2E1"/>
<path d="M91.246 122.968V124.319L88.0522 122.067V120.715L91.246 122.968Z" fill="#DAD0D0"/>
<path d="M130.042 95.2971L91.246 122.968L88.0522 120.715L126.848 93.0449L130.042 95.2971Z" fill="#F7F2F2"/>
<path d="M118.419 79.9176L103.497 69.2355C105.958 69.9434 107.319 70.3939 109.78 71.1017L124.754 81.7838C122.241 81.0759 120.879 80.6898 118.419 79.9176Z" fill="#35353B"/>
<path d="M111.037 106.687L96.1152 96.0052V74.5123L111.037 85.1944V106.687Z" fill="#29292D"/>
<path d="M111.037 85.1943L96.1152 74.5122L103.497 69.2355L118.419 79.9176L111.037 85.1943Z" fill="#414148"/>
<path d="M118.419 79.9177L124.702 81.7839V96.9705L111.037 106.687V85.1944L118.419 79.9177Z" fill="#252529"/>
<path d="M112.398 86.1597L118.629 81.7195L123.341 83.1353V96.0052L112.398 103.792V86.1597Z" fill="#35353B"/>
<path d="M95.5393 49.5444L90.8273 52.9549L88.1047 65.1814L95.5393 59.9047V49.5444Z" fill="#DAD0D0"/>
<path d="M88.1047 65.1815L88 95.4259L95.4869 90.1492L95.5393 59.9048L88.1047 65.1815Z" fill="#DAD0D0"/>
<path d="M90.8272 52.955L88.6283 51.4106L85.9058 63.6371L88.1047 65.2458L90.8272 52.955Z" fill="#F2EBEB"/>
<path d="M85.9056 63.637L85.8533 93.8814L87.9999 95.4259L88.1046 65.2457L85.9056 63.637Z" fill="#E9E2E1"/>
<path d="M95.5393 49.5444L90.8272 52.9549L88.6283 51.4105L93.3927 48L95.5393 49.5444Z" fill="#F7F2F2"/>
<path d="M113.812 65.0527L113.759 104.628L108.052 108.682L101.665 76.3783L110.827 65.6319L113.812 65.0527Z" fill="#252529"/>
<path d="M113.811 65.0527L110.827 67.2406L91.5078 53.5341L94.5444 51.3462L113.811 65.0527Z" fill="#4C4C54"/>
<path d="M110.827 67.2407L91.5079 53.5342L88.7854 65.9538L108.105 79.7246L110.827 67.2407Z" fill="#38373E"/>
<path d="M88.7853 65.9537L88.7329 94.9756L108.052 108.682L108.105 79.7246L88.7853 65.9537Z" fill="#252529"/>
<path d="M116.22 64.2162L111.456 67.6911L108.785 79.8532L116.22 74.5765V64.2162Z" fill="#DAD0D0"/>
<path d="M108.785 79.8532L108.681 110.162L116.116 104.821L116.22 74.5765L108.785 79.8532Z" fill="#DAD0D0"/>
<path d="M111.456 67.6911L109.309 66.0823L106.586 78.3088L108.785 79.9176L111.456 67.6911Z" fill="#F2EBEB"/>
<path d="M106.586 78.3087L106.482 108.553L108.681 110.162L108.785 79.9175L106.586 78.3087Z" fill="#E9E2E1"/>
<path d="M116.22 64.2162L111.456 67.6911L109.309 66.0823L114.021 62.6718L116.22 64.2162Z" fill="#F7F2F2"/>
<path d="M79.7278 86.6099C90.0943 86.996 86.2723 74.8339 92.0315 72.9678L105.068 82.2984C99.2566 87.1247 102.974 97.9998 92.7644 95.9407L79.7278 86.6099Z" fill="#F2EBEB"/>
<path d="M49.1519 72.1957V100.638L56.6388 105.915V77.5368L49.1519 72.1957Z" fill="#38373E"/>
<path d="M56.6389 77.5368V105.915L76.4295 91.8225V63.4442L56.6389 77.5368Z" fill="#252529"/>
<path d="M49.1519 72.1957L56.6388 77.5367L76.4293 63.4441L68.9948 58.1674L49.1519 72.1957Z" fill="#424148"/>
<path d="M50.4607 72.1958L51.246 72.7749L56.6387 76.6359L74.3874 64.0233L75.1204 63.4442L68.9947 59.0684L50.4607 72.1958Z" fill="#252529"/>
<path d="M51.2461 72.7748L56.6388 76.6358L74.3874 64.0232L68.9948 60.1622L51.2461 72.7748Z" fill="#38373E"/>
<path d="M108.733 99.5443L108.681 110.162L99.9895 116.34V105.722L108.733 99.5443Z" fill="#252529"/>
<path d="M107.424 102.054L107.372 109.454L101.299 113.766L101.351 106.365L107.424 102.054Z" fill="#38373E"/>
<path d="M100.042 105.722L99.9896 116.34L97.4766 114.538V103.92L100.042 105.722Z" fill="#38373E"/>
<path d="M108.733 99.5443L100.042 105.722L97.4766 103.92L106.168 97.7425L108.733 99.5443Z" fill="#38373E"/>
<path d="M78.1571 75.4131L78.1047 100.767L69.623 106.816V81.462L78.1571 75.4131Z" fill="#E9E2E1"/>
<path d="M69.6231 81.4621V106.816L67.0576 105.014L67.11 79.6603L69.6231 81.4621Z" fill="#DAD0D0"/>
<path d="M78.1573 75.4132L69.6232 81.4621L67.1101 79.6603L75.6441 73.6113L78.1573 75.4132Z" fill="#F7F2F2"/>
<path d="M97.424 91.7581L97.3717 114.216L89.8848 119.557L89.9372 97.0992L97.424 91.7581Z" fill="#252529"/>
<path d="M89.9372 97.099L89.8849 119.557L70.042 105.465L70.0943 83.0707L89.9372 97.099Z" fill="#252529"/>
<path d="M86.848 98.2575V103.856L85.8533 103.148L73.2878 94.2034V88.6693L76.3245 90.8572L86.848 98.2575Z" fill="#1A191D"/>
<path d="M97.4241 91.758L89.9372 97.0991L70.0942 83.0708L77.5812 77.7297L97.4241 91.758Z" fill="#424148"/>
<path d="M96.115 91.7579L95.3297 92.3371L89.937 96.198L72.1883 83.5855L71.4553 83.0707L77.581 78.6305L96.115 91.7579Z" fill="#252529"/>
<path d="M95.3298 92.3371L89.9372 96.1981L72.1885 83.5855L77.5811 79.7245L95.3298 92.3371Z" fill="#38373E"/>
<path d="M99.9896 90.9857V116.34L91.4556 122.388L91.5079 97.0346L99.9896 90.9857Z" fill="#E9E2E1"/>
<path d="M91.9268 121.359L91.9791 97.3564L99.5184 92.0153L99.466 116.018L91.9268 121.359ZM92.2409 97.5494L92.1885 120.844L99.2566 115.825L99.3089 92.5301L92.2409 97.5494Z" fill="#DAD0D0"/>
<path d="M91.5078 97.0347L91.4555 122.389L88.9424 120.587V95.2329L91.5078 97.0347Z" fill="#DAD0D0"/>
<path d="M99.9895 90.9858L91.5078 97.0346L88.9424 95.2329L97.4764 89.1839L99.9895 90.9858Z" fill="#F7F2F2"/>
<path d="M94.0732 115.696L93.759 115.439C94.0732 115.246 94.335 115.181 94.5444 115.374L94.8585 115.632C94.6491 115.439 94.3873 115.439 94.0732 115.696Z" fill="#222125"/>
<path d="M93.3402 118.849L93.026 118.592C92.8166 118.463 92.7119 118.141 92.7119 117.755C92.7119 116.919 93.1831 115.889 93.8114 115.439L94.1255 115.696C93.4972 116.146 93.026 117.176 93.026 118.013C93.026 118.399 93.1308 118.721 93.3402 118.849Z" fill="#222125"/>
<path d="M94.0734 115.696C94.7017 115.246 95.1729 115.632 95.1729 116.468C95.1729 117.305 94.7017 118.334 94.0734 118.785C93.4451 119.235 92.9739 118.849 92.9739 118.013C93.0263 117.176 93.4975 116.082 94.0734 115.696Z" fill="#37363D"/>
<path d="M94.0733 112.286L93.8115 112.093C94.021 111.9 94.2303 111.9 94.3874 112.028L94.6492 112.221C94.4922 112.093 94.2827 112.157 94.0733 112.286Z" fill="#222125"/>
<path d="M93.4975 114.667L93.2357 114.474C93.0786 114.345 92.9739 114.152 92.9739 113.83C92.9739 113.187 93.3404 112.414 93.8116 112.093L94.0734 112.286C93.6022 112.607 93.2357 113.38 93.2357 114.023C93.2357 114.345 93.3404 114.538 93.4975 114.667Z" fill="#222125"/>
<path d="M94.0733 112.286C94.5445 111.964 94.911 112.221 94.911 112.865C94.911 113.508 94.5445 114.28 94.0733 114.602C93.602 114.924 93.2356 114.667 93.2356 114.023C93.2356 113.38 93.602 112.607 94.0733 112.286Z" fill="#37363D"/>
<path d="M78.2096 110.806L65.2253 101.539C66.3771 100.703 67.4766 100.445 68.3667 100.767L81.4033 110.098C80.4609 109.776 79.4138 109.969 78.2096 110.806Z" fill="#CACACA"/>
<path d="M81.3509 110.033L68.3142 100.703C68.576 100.767 68.7854 100.896 68.9948 101.024L82.0314 110.355C81.8221 110.226 81.6126 110.098 81.3509 110.033Z" fill="#F2EBEB"/>
<path d="M74.4923 126.314L61.4556 116.983C60.5132 116.275 59.885 114.86 59.885 112.801C59.885 110.806 60.4086 108.618 61.2986 106.687L74.3352 116.018C73.4452 118.013 72.9217 120.136 72.9217 122.131C72.9217 124.19 73.4976 125.67 74.4923 126.314Z" fill="#F2EBEB"/>
<path d="M74.3352 116.018L61.2986 106.687C62.2933 104.499 63.6546 102.569 65.2253 101.475L78.2619 110.806C76.6913 111.9 75.2776 113.83 74.3352 116.018Z" fill="#CACACA"/>
<path d="M78.2096 110.806C81.1415 108.747 83.5499 110.42 83.5499 114.538C83.5499 118.721 81.1939 123.74 78.262 125.864C75.3301 127.923 72.9216 126.25 72.9216 122.131C72.9216 117.949 75.2777 112.929 78.2096 110.806Z" fill="#DAD0D0"/>
<path d="M78.2618 116.275C79.0995 115.696 79.7278 116.147 79.7278 117.305C79.7278 118.463 79.0471 119.879 78.2618 120.458C77.4241 121.037 76.7958 120.587 76.7958 119.428C76.7435 118.27 77.4241 116.854 78.2618 116.275Z" fill="#4C4C54"/>
<path d="M86.8483 98.2573V102.247C86.5342 102.504 86.2201 102.826 85.8535 103.148C81.6127 106.88 75.6964 112.672 74.3352 116.018L61.2986 106.687C62.2933 103.47 68.8902 97.2277 73.2881 93.4311C74.5446 92.3372 75.6441 91.3718 76.3771 90.8571L86.8483 98.2573Z" fill="#F7F2F2"/>
<path d="M97.3196 103.534L97.1102 103.405L97.0579 95.6189L97.2673 95.7476L97.3196 103.534Z" fill="#252529"/>
<path d="M97.2673 95.7476L97.0579 95.6189L98.5762 94.5893L98.7856 94.718L97.2673 95.7476Z" fill="#4C4C54"/>
<path d="M98.7855 94.7181V102.44L97.3195 103.534L97.2671 95.7477L98.7855 94.7181Z" fill="#38373E"/>
<path d="M98.5236 98.2573L98.3142 98.1287C98.2095 98.0643 98.1048 98.0643 97.9478 98.1929L98.1572 98.3217C98.2619 98.2573 98.419 98.1929 98.5236 98.2573Z" fill="#C31C27"/>
<path d="M98.5236 98.2573L98.3142 98.1287C98.2095 98.0643 98.1048 98.0643 97.9478 98.1929L98.1572 98.3217C98.2619 98.2573 98.419 98.1929 98.5236 98.2573Z" fill="#C31C27"/>
<path d="M97.5813 99.7373L97.7908 99.8661C97.6861 99.8017 97.6337 99.673 97.6337 99.4799C97.6337 99.0939 97.8432 98.5791 98.1573 98.386L97.9479 98.2573C97.6337 98.4504 97.4243 98.9651 97.4243 99.3513C97.4243 99.5443 97.4767 99.673 97.5813 99.7373Z" fill="#C31C27"/>
<path d="M98.1573 98.3216L97.9479 98.1929C97.6337 98.386 97.4243 98.9008 97.4243 99.2868C97.4243 99.4799 97.4767 99.6086 97.5813 99.673L97.7908 99.8016C97.6861 99.7373 97.6337 99.6086 97.6337 99.4156C97.6337 99.0294 97.8432 98.5146 98.1573 98.3216Z" fill="#C31C27"/>
<path d="M98.1572 98.3217C97.843 98.5147 97.6335 99.0295 97.6335 99.4156C97.6335 99.8017 97.8954 99.9948 98.1572 99.8017C98.4713 99.6087 98.6807 99.0939 98.6807 98.7078C98.6807 98.2573 98.4189 98.1286 98.1572 98.3217Z" fill="#D93F48"/>
<path d="M98.5236 100.638L98.3142 100.509C98.2095 100.445 98.1048 100.445 97.9478 100.574L98.1572 100.702C98.2619 100.574 98.419 100.574 98.5236 100.638Z" fill="#F7F2F2"/>
<path d="M98.5236 100.638L98.3142 100.509C98.2095 100.445 98.1048 100.445 97.9478 100.574L98.1572 100.702C98.2619 100.574 98.419 100.574 98.5236 100.638Z" fill="#F7F2F2"/>
<path d="M97.5813 102.118L97.7908 102.247C97.6861 102.182 97.6337 102.054 97.6337 101.861C97.6337 101.475 97.8432 100.96 98.1573 100.767L97.9479 100.638C97.6337 100.831 97.4243 101.346 97.4243 101.732C97.4243 101.925 97.4767 102.054 97.5813 102.118Z" fill="#F7F2F2"/>
<path d="M98.1573 100.702L97.9479 100.574C97.6337 100.767 97.4243 101.282 97.4243 101.668C97.4243 101.861 97.4767 101.989 97.5813 102.054L97.7908 102.182C97.6861 102.118 97.6337 101.989 97.6337 101.796C97.6337 101.41 97.8432 100.895 98.1573 100.702Z" fill="#F7F2F2"/>
<path d="M98.1572 100.702C97.843 100.895 97.6335 101.41 97.6335 101.796C97.6335 102.183 97.8954 102.376 98.1572 102.183C98.4713 101.989 98.6807 101.475 98.6807 101.089C98.6807 100.638 98.4189 100.509 98.1572 100.702Z" fill="#DAD0D0"/>
<path d="M98.5236 95.8119L98.3142 95.6833C98.2095 95.6189 98.1048 95.6189 97.9478 95.7476L98.1572 95.8763C98.2619 95.7476 98.419 95.7476 98.5236 95.8119Z" fill="#FFB700"/>
<path d="M98.5236 95.8119L98.3142 95.6833C98.2095 95.6189 98.1048 95.6189 97.9478 95.7476L98.1572 95.8763C98.2619 95.7476 98.419 95.7476 98.5236 95.8119Z" fill="#FFB700"/>
<path d="M97.5813 97.2919L97.7908 97.4206C97.6861 97.3563 97.6337 97.2275 97.6337 97.0345C97.6337 96.6485 97.8432 96.1336 98.1573 95.9405L97.9479 95.8119C97.6337 96.0049 97.4243 96.5197 97.4243 96.9058C97.4243 97.0345 97.4767 97.2275 97.5813 97.2919Z" fill="#FFB700"/>
<path d="M98.1573 95.8762L97.9479 95.7474C97.6337 95.9405 97.4243 96.4553 97.4243 96.8414C97.4243 97.0345 97.4767 97.1632 97.5813 97.2275L97.7908 97.3562C97.6861 97.2919 97.6337 97.1632 97.6337 96.9701C97.6337 96.584 97.8432 96.0692 98.1573 95.8762Z" fill="#FFB700"/>
<path d="M98.1572 95.8763C97.843 96.0693 97.6335 96.5841 97.6335 96.9703C97.6335 97.3563 97.8954 97.5494 98.1572 97.3563C98.4713 97.1633 98.6807 96.6485 98.6807 96.2624C98.6807 95.8119 98.4189 95.6833 98.1572 95.8763Z" fill="#FFD438"/>
<path d="M66.3769 79.0811L57.5811 85.323V78.5663L66.3769 72.3243V79.0811Z" fill="#5F5F66"/>
<path d="M60.7749 76.8932V82.4272L66.0629 78.6307V73.0965L65.6964 73.3539L60.7749 76.8932Z" fill="#F7F2F2"/>
<path d="M60.7749 76.8932V81.9124L65.6964 78.4375V73.3539L63.6021 74.8983L63.2357 75.0914L62.4503 75.6705L61.5079 76.314L60.7749 76.8932Z" fill="#38373E"/>
<path d="M63.6021 74.8985L64.1779 74.5123C64.7015 74.7697 65.2251 75.0271 65.7486 75.2845V75.9281C65.0157 75.5419 64.2827 75.2202 63.6021 74.8985Z" fill="#424148"/>
<path d="M62.4503 75.6705L62.5551 75.6061C63.6545 76.0566 64.7016 76.5714 65.7487 77.1505V78.3732C64.3351 77.7296 62.9739 77.0218 61.5603 76.314L62.4503 75.6705Z" fill="#38373E"/>
<path d="M61.5078 76.314L65.6963 78.4376V77.2793L62.4502 75.6706L61.5078 76.314Z" fill="#424148"/>
<path d="M58.0524 79.5317C58 79.5317 58 79.4673 58 79.403V79.1456C58 79.0813 58.0524 78.9525 58.1047 78.8882L58.3142 78.6951H58.3665C58.4189 78.6951 58.4189 78.7595 58.4189 78.8239V79.0813C58.4189 79.1456 58.3665 79.2743 58.3142 79.3387L58.1047 79.5317H58.0524Z" fill="#38373E"/>
<path d="M58.3665 78.7595C58.4189 78.7595 58.4189 78.8239 58.4189 78.8883V79.1457C58.4189 79.21 58.3665 79.3387 58.3142 79.4031L58.1047 79.5318H58.0524C58 79.5318 58 79.4674 58 79.4031V79.1457C58 79.0813 58.0524 78.9526 58.1047 78.8883L58.3665 78.7595ZM58.3665 78.7595H58.3142L58.1047 78.9526C58.0524 79.0169 58 79.1457 58 79.21V79.4674C58 79.5318 58.0524 79.5961 58.1047 79.5961H58.1571L58.3665 79.4031C58.4189 79.3387 58.4712 79.21 58.4712 79.1457V78.8883C58.4712 78.7595 58.4189 78.7595 58.3665 78.7595Z" fill="#777777"/>
<path d="M58.6805 79.0813C58.6282 79.0813 58.6282 79.0169 58.6282 78.9526V78.6952C58.6282 78.6308 58.6805 78.5021 58.7329 78.4378L58.9423 78.2447H58.9946C59.047 78.2447 59.047 78.3091 59.047 78.3734V78.6308C59.047 78.6952 58.9946 78.8239 58.9423 78.8882L58.7329 79.0813C58.6805 79.0813 58.6805 79.0813 58.6805 79.0813Z" fill="#38373E"/>
<path d="M58.9946 78.3091C59.047 78.3091 59.047 78.3735 59.047 78.4378V78.6952C59.047 78.7596 58.9946 78.8883 58.9423 78.9526L58.7329 79.1457H58.6805C58.6282 79.1457 58.6282 79.0813 58.6282 79.017V78.7596C58.6282 78.6952 58.6805 78.5665 58.7329 78.5022L58.9946 78.3091ZM58.9946 78.3091H58.9423L58.7329 78.5022C58.6805 78.5665 58.6282 78.6952 58.6282 78.7596V79.017C58.6282 79.0813 58.6805 79.1457 58.7329 79.1457H58.7853L58.9946 78.9526C59.047 78.8883 59.0994 78.7596 59.0994 78.6952V78.4378C59.047 78.3091 59.047 78.3091 58.9946 78.3091Z" fill="#777777"/>
<path d="M59.2564 78.6307C59.2041 78.6307 59.2041 78.5663 59.2041 78.502V78.2446C59.2041 78.1803 59.2564 78.0515 59.3088 77.9872L59.5182 77.7941H59.5706C59.6229 77.7941 59.623 77.8585 59.623 77.9229V78.1803C59.623 78.2446 59.5706 78.3733 59.5182 78.4377L59.3088 78.6307C59.3088 78.6307 59.3088 78.6307 59.2564 78.6307Z" fill="#38373E"/>
<path d="M59.623 77.8586C59.6754 77.8586 59.6754 77.9229 59.6754 77.9872V78.2446C59.6754 78.309 59.623 78.4377 59.5707 78.502L59.3613 78.6951H59.3089C59.2566 78.6951 59.2566 78.6308 59.2566 78.5664V78.309C59.2566 78.2446 59.3089 78.116 59.3613 78.0516L59.623 77.8586C59.5707 77.8586 59.5707 77.8586 59.623 77.8586ZM59.623 77.8586H59.5707L59.3613 78.0516C59.3089 78.116 59.2566 78.2446 59.2566 78.309V78.5664C59.2566 78.6308 59.3089 78.6951 59.3613 78.6951H59.4136L59.623 78.502C59.6754 78.4377 59.7277 78.309 59.7277 78.2446V77.9872C59.6754 77.8586 59.6754 77.8586 59.623 77.8586Z" fill="#777777"/>
<path d="M59.8849 78.1802C59.8325 78.1802 59.8325 78.1159 59.8325 78.0516V77.7942C59.8325 77.7298 59.8849 77.6011 59.9373 77.5368L60.1467 77.3438H60.199C60.2514 77.3438 60.2514 77.408 60.2514 77.4724V77.7298C60.2514 77.7942 60.199 77.9228 60.1467 77.9872L59.9373 78.1802H59.8849Z" fill="#38373E"/>
<path d="M60.199 77.4081C60.2514 77.4081 60.2514 77.4725 60.2514 77.5368V77.7942C60.2514 77.8586 60.199 77.9873 60.1467 78.0517L59.9373 78.2447H59.8849C59.8325 78.2447 59.8325 78.1803 59.8325 78.116V77.8586C59.8325 77.7942 59.8849 77.6655 59.9373 77.6012L60.199 77.4081ZM60.199 77.4081H60.1467L59.9373 77.6012C59.8849 77.6655 59.8325 77.7942 59.8325 77.8586V78.116C59.8325 78.1803 59.8849 78.2447 59.9373 78.2447H59.9896L60.199 78.0517C60.2514 77.9873 60.3037 77.8586 60.3037 77.7942V77.5368C60.3037 77.4081 60.2514 77.4081 60.199 77.4081Z" fill="#777777"/>
<path d="M58.0524 80.2395C58 80.2395 58 80.1751 58 80.1108V79.8534C58 79.789 58.0524 79.6604 58.1047 79.596L58.3142 79.403H58.3665C58.4189 79.403 58.4189 79.4673 58.4189 79.5316V79.789C58.4189 79.8534 58.3665 79.9821 58.3142 80.0464L58.1047 80.2395H58.0524Z" fill="#38373E"/>
<path d="M58.3665 79.4673C58.4189 79.4673 58.4189 79.5317 58.4189 79.596V79.8534C58.4189 79.9177 58.3665 80.0465 58.3142 80.1108L58.1047 80.2395H58.0524C58 80.2395 58 80.1751 58 80.1108V79.8534C58 79.7891 58.0524 79.6603 58.1047 79.596L58.3665 79.4673ZM58.3665 79.4673H58.3142L58.1047 79.6603C58.0524 79.7247 58 79.8534 58 79.9177V80.1751C58 80.2395 58.0524 80.3038 58.1047 80.3038H58.1571L58.3665 80.1108C58.4189 80.0465 58.4712 79.9177 58.4712 79.8534V79.596C58.4712 79.4673 58.4189 79.4673 58.3665 79.4673Z" fill="#777777"/>
<path d="M58.6805 79.7889C58.6282 79.7889 58.6282 79.7245 58.6282 79.6602V79.4028C58.6282 79.3384 58.6805 79.2097 58.7329 79.1454L58.9423 78.9523H58.9946C59.047 78.9523 59.047 79.0166 59.047 79.081V79.3384C59.047 79.4028 58.9946 79.5314 58.9423 79.5958L58.7329 79.7889C58.6805 79.7889 58.6805 79.7889 58.6805 79.7889Z" fill="#38373E"/>
<path d="M58.9946 79.0167C59.047 79.0167 59.047 79.0811 59.047 79.1455V79.4029C59.047 79.4671 58.9946 79.5959 58.9423 79.6603L58.7329 79.8533H58.6805C58.6282 79.8533 58.6282 79.7889 58.6282 79.7245V79.4671C58.6282 79.4029 58.6805 79.2741 58.7329 79.2097L58.9946 79.0167ZM58.9946 79.0167H58.9423L58.7329 79.2097C58.6805 79.2741 58.6282 79.4029 58.6282 79.4671V79.7245C58.6282 79.7889 58.6805 79.8533 58.7329 79.8533H58.7853L58.9946 79.6603C59.047 79.5959 59.0994 79.4671 59.0994 79.4029V79.1455C59.0994 79.0167 59.047 79.0167 58.9946 79.0167Z" fill="#777777"/>
<path d="M59.2564 79.3385C59.2041 79.3385 59.2041 79.2741 59.2041 79.2098V78.9524C59.2041 78.888 59.2564 78.7594 59.3088 78.695L59.5182 78.502H59.5706C59.6229 78.502 59.623 78.5663 59.623 78.6306V78.888C59.623 78.9524 59.5706 79.0811 59.5182 79.1455L59.3088 79.3385C59.3088 79.3385 59.3088 79.3385 59.2564 79.3385Z" fill="#38373E"/>
<path d="M59.623 78.5663C59.6754 78.5663 59.6754 78.6307 59.6754 78.695V78.9524C59.6754 79.0168 59.623 79.1455 59.5707 79.2098L59.3613 79.4028H59.3089C59.2566 79.4028 59.2566 79.3385 59.2566 79.2742V79.0168C59.2566 78.9524 59.3089 78.8237 59.3613 78.7594L59.623 78.5663ZM59.623 78.5663H59.5707L59.3613 78.7594C59.3089 78.8237 59.2566 78.9524 59.2566 79.0168V79.2742C59.2566 79.3385 59.3089 79.4028 59.3613 79.4028H59.4136L59.623 79.2098C59.6754 79.1455 59.7277 79.0168 59.7277 78.9524V78.695C59.6754 78.5663 59.6754 78.5663 59.623 78.5663Z" fill="#777777"/>
<path d="M59.8849 78.8881C59.8325 78.8881 59.8325 78.8237 59.8325 78.7594V78.502C59.8325 78.4376 59.8849 78.3089 59.9373 78.2446L60.1467 78.0515H60.199C60.2514 78.0515 60.2514 78.1159 60.2514 78.1803V78.4377C60.2514 78.502 60.199 78.6307 60.1467 78.695L59.9373 78.8881C59.9373 78.8881 59.9373 78.8881 59.8849 78.8881Z" fill="#38373E"/>
<path d="M60.199 78.116C60.2514 78.116 60.2514 78.1803 60.2514 78.2446V78.502C60.2514 78.5664 60.199 78.6951 60.1467 78.7594L59.9373 78.8882H59.8849C59.8325 78.8882 59.8325 78.8238 59.8325 78.7594V78.502C59.8325 78.4377 59.8849 78.309 59.9373 78.2446L60.199 78.116ZM60.199 78.116H60.1467L59.9373 78.309C59.8849 78.3734 59.8325 78.502 59.8325 78.5664V78.8238C59.8325 78.8882 59.8849 78.9524 59.9373 78.9524H59.9896L60.199 78.7594C60.2514 78.6951 60.3037 78.5664 60.3037 78.502V78.2446C60.3037 78.116 60.2514 78.116 60.199 78.116Z" fill="#777777"/>
<path d="M58.0524 80.9475C58 80.9475 58 80.8832 58 80.8188V80.5614C58 80.497 58.0524 80.3684 58.1047 80.304L58.3142 80.111H58.3665C58.4189 80.111 58.4189 80.1753 58.4189 80.2396V80.497C58.4189 80.5614 58.3665 80.6901 58.3142 80.7545L58.1047 80.9475C58.1047 80.9475 58.1047 80.9475 58.0524 80.9475Z" fill="#38373E"/>
<path d="M58.4189 80.1753C58.4712 80.1753 58.4712 80.2397 58.4712 80.304V80.5614C58.4712 80.6258 58.4189 80.7545 58.3665 80.8188L58.1047 80.9475H58.0524C58 80.9475 58 80.8832 58 80.8188V80.5614C58 80.4971 58.0524 80.3684 58.1047 80.304L58.4189 80.1753C58.3665 80.1753 58.3665 80.1753 58.4189 80.1753ZM58.4189 80.1753H58.3665L58.1047 80.3684C58.0524 80.4327 58 80.5614 58 80.6258V80.8832C58 80.9475 58.0524 81.0119 58.1047 81.0119H58.1571L58.3665 80.8188C58.4189 80.7545 58.4712 80.6258 58.4712 80.5614V80.304C58.4712 80.1753 58.4189 80.1753 58.4189 80.1753Z" fill="#777777"/>
<path d="M58.6805 80.4971C58.6282 80.4971 58.6282 80.4327 58.6282 80.3684V80.111C58.6282 80.0467 58.6805 79.9179 58.7329 79.8536L58.9423 79.6605H58.9946C59.047 79.6605 59.047 79.7249 59.047 79.7893V80.0467C59.047 80.111 58.9946 80.2397 58.9423 80.3041L58.7329 80.4971H58.6805Z" fill="#38373E"/>
<path d="M58.9946 79.725C59.047 79.725 59.047 79.7893 59.047 79.8536V80.111C59.047 80.1754 58.9946 80.3041 58.9423 80.3684L58.7329 80.5615H58.6805C58.6282 80.5615 58.6282 80.4972 58.6282 80.4328V80.1754C58.6282 80.111 58.6805 79.9824 58.7329 79.918L58.9946 79.725ZM58.9946 79.725H58.9423L58.7329 79.918C58.6805 79.9824 58.6282 80.111 58.6282 80.1754V80.4328C58.6282 80.4972 58.6805 80.5615 58.7329 80.5615H58.7853L58.9946 80.3684C59.047 80.3041 59.0994 80.1754 59.0994 80.111V79.8536C59.0994 79.725 59.047 79.725 58.9946 79.725Z" fill="#777777"/>
<path d="M59.3089 80.0465C59.2566 80.0465 59.2566 79.9821 59.2566 79.9177V79.6603C59.2566 79.596 59.3089 79.4673 59.3613 79.4029L59.5707 79.2099H59.623C59.6754 79.2099 59.6754 79.2743 59.6754 79.3386V79.596C59.6754 79.6603 59.623 79.7891 59.5707 79.8534L59.3613 80.0465C59.3089 80.0465 59.3089 80.0465 59.3089 80.0465Z" fill="#38373E"/>
<path d="M59.623 79.2743C59.6754 79.2743 59.6754 79.3387 59.6754 79.403V79.6604C59.6754 79.7248 59.623 79.8535 59.5707 79.9178L59.3613 80.1109H59.3089C59.2566 80.1109 59.2566 80.0466 59.2566 79.9822V79.7248C59.2566 79.6604 59.3089 79.5318 59.3613 79.4674L59.623 79.2743ZM59.623 79.2743H59.5707L59.3613 79.4674C59.3089 79.5318 59.2566 79.6604 59.2566 79.7248V79.9822C59.2566 80.0466 59.3089 80.1109 59.3613 80.1109H59.4136L59.623 79.9178C59.6754 79.8535 59.7277 79.7248 59.7277 79.6604V79.403C59.6754 79.2743 59.6754 79.2743 59.623 79.2743Z" fill="#777777"/>
<path d="M59.8849 79.5961C59.8325 79.5961 59.8325 79.5318 59.8325 79.4674V79.21C59.8325 79.1457 59.8849 79.0169 59.9373 78.9526L60.1467 78.7595H60.199C60.2514 78.7595 60.2514 78.8239 60.2514 78.8883V79.1457C60.2514 79.21 60.199 79.3387 60.1467 79.4031L59.9373 79.5961C59.9373 79.5961 59.9373 79.5961 59.8849 79.5961Z" fill="#38373E"/>
<path d="M60.2513 78.824C60.3036 78.824 60.3036 78.8883 60.3036 78.9526V79.21C60.3036 79.2744 60.2513 79.4031 60.1989 79.4674L59.9895 79.6605H59.9371C59.8848 79.6605 59.8848 79.5962 59.8848 79.5318V79.2744C59.8848 79.21 59.9371 79.0814 59.9895 79.017L60.2513 78.824C60.1989 78.824 60.1989 78.824 60.2513 78.824ZM60.2513 78.824H60.1989L59.9895 79.017C59.9371 79.0814 59.8848 79.21 59.8848 79.2744V79.5318C59.8848 79.5962 59.9371 79.6605 59.9895 79.6605H60.0419L60.2513 79.4674C60.3036 79.4031 60.356 79.2744 60.356 79.21V78.9526C60.3036 78.824 60.3036 78.824 60.2513 78.824Z" fill="#777777"/>
<path d="M58.0524 81.6553C58 81.6553 58 81.591 58 81.5266V81.2692C58 81.2048 58.0524 81.0762 58.1047 81.0118L58.3142 80.8188H58.3665C58.4189 80.8188 58.4189 80.8831 58.4189 80.9474V81.2048C58.4189 81.2692 58.3665 81.3979 58.3142 81.4622L58.1047 81.6553C58.1047 81.6553 58.1047 81.6553 58.0524 81.6553Z" fill="#38373E"/>
<path d="M58.4189 80.8831C58.4712 80.8831 58.4712 80.9475 58.4712 81.0119V81.2693C58.4712 81.3335 58.4189 81.4623 58.3665 81.5267L58.1047 81.6553H58.0524C58 81.6553 58 81.5909 58 81.5267V81.2693C58 81.2049 58.0524 81.0761 58.1047 81.0119L58.4189 80.8831C58.3665 80.8831 58.3665 80.8831 58.4189 80.8831ZM58.4189 80.8831H58.3665L58.1047 81.0761C58.0524 81.1405 58 81.2693 58 81.3335V81.5909C58 81.6553 58.0524 81.7197 58.1047 81.7197H58.1571L58.3665 81.5267C58.4189 81.4623 58.4712 81.3335 58.4712 81.2693V81.0119C58.4712 80.8831 58.4712 80.8831 58.4189 80.8831Z" fill="#777777"/>
<path d="M58.6805 81.2049C58.6282 81.2049 58.6282 81.1405 58.6282 81.0762V80.8188C58.6282 80.7545 58.6805 80.6257 58.7329 80.5614L58.9423 80.3683H58.9946C59.047 80.3683 59.047 80.4327 59.047 80.497V80.7545C59.047 80.8188 58.9946 80.9475 58.9423 81.0119L58.7329 81.2049H58.6805Z" fill="#38373E"/>
<path d="M58.9946 80.4327C59.047 80.4327 59.047 80.497 59.047 80.5614V80.8188C59.047 80.8832 58.9946 81.0118 58.9423 81.0762L58.7329 81.2692H58.6805C58.6282 81.2692 58.6282 81.2049 58.6282 81.1406V80.8832C58.6282 80.8188 58.6805 80.6901 58.7329 80.6258L58.9946 80.4327ZM58.9946 80.4327H58.9423L58.7329 80.6258C58.6805 80.6901 58.6282 80.8188 58.6282 80.8832V81.1406C58.6282 81.2049 58.6805 81.2692 58.7329 81.2692H58.7853L58.9946 81.0762C59.047 81.0118 59.0994 80.8832 59.0994 80.8188V80.5614C59.0994 80.4327 59.047 80.4327 58.9946 80.4327Z" fill="#777777"/>
<path d="M59.3089 80.7543C59.2566 80.7543 59.2566 80.6899 59.2566 80.6255V80.3682C59.2566 80.3038 59.3089 80.1751 59.3613 80.1108L59.5707 79.9177H59.623C59.6754 79.9177 59.6754 79.9821 59.6754 80.0464V80.3038C59.6754 80.3681 59.623 80.4969 59.5707 80.5612L59.3613 80.7543H59.3089Z" fill="#38373E"/>
<path d="M59.623 79.9821C59.6754 79.9821 59.6754 80.0465 59.6754 80.1109V80.3683C59.6754 80.4325 59.623 80.5613 59.5707 80.6257L59.3613 80.8187H59.3089C59.2566 80.8187 59.2566 80.7543 59.2566 80.69V80.4326C59.2566 80.3683 59.3089 80.2395 59.3613 80.1751L59.623 79.9821ZM59.623 79.9821H59.5707L59.3613 80.1751C59.3089 80.2395 59.2566 80.3683 59.2566 80.4326V80.69C59.2566 80.7543 59.3089 80.8187 59.3613 80.8187H59.4136L59.623 80.6257C59.6754 80.5613 59.7277 80.4325 59.7277 80.3683V80.1109C59.7277 79.9821 59.6754 79.9821 59.623 79.9821Z" fill="#777777"/>
<path d="M59.9371 80.3039C59.8848 80.3039 59.8848 80.2396 59.8848 80.1752V79.9178C59.8848 79.8534 59.9371 79.7248 59.9895 79.6604L60.1989 79.5317H60.2513C60.3036 79.5317 60.3036 79.596 60.3036 79.6604V79.9178C60.3036 79.9822 60.2513 80.1108 60.1989 80.1752L59.9895 80.3682C59.9371 80.3039 59.9371 80.3039 59.9371 80.3039Z" fill="#38373E"/>
<path d="M60.2513 79.5317C60.3036 79.5317 60.3036 79.596 60.3036 79.6604V79.9178C60.3036 79.9822 60.2513 80.1108 60.1989 80.1752L59.9895 80.3682H59.9371C59.8848 80.3682 59.8848 80.3039 59.8848 80.2396V79.9822C59.8848 79.9178 59.9371 79.7891 59.9895 79.7248L60.2513 79.5317ZM60.2513 79.5317H60.1989L59.9895 79.7248C59.9371 79.7891 59.8848 79.9178 59.8848 79.9822V80.2396C59.8848 80.3039 59.9371 80.3682 59.9895 80.3682H60.0419L60.2513 80.1752C60.3036 80.1108 60.356 79.9822 60.356 79.9178V79.6604C60.3036 79.5317 60.3036 79.5317 60.2513 79.5317Z" fill="#777777"/>
<path d="M58.0524 82.3631C58 82.3631 58 82.2987 58 82.2344V81.977C58 81.9126 58.0524 81.7839 58.1047 81.7196L58.3142 81.5265H58.3665C58.4189 81.5265 58.4189 81.5909 58.4189 81.6552V81.9126C58.4189 81.977 58.3665 82.1057 58.3142 82.17L58.1047 82.3631C58.1047 82.3631 58.1047 82.3631 58.0524 82.3631Z" fill="#38373E"/>
<path d="M58.4189 81.5909C58.4712 81.5909 58.4712 81.6552 58.4712 81.7196V81.977C58.4712 82.0414 58.4189 82.1701 58.3665 82.2344L58.1047 82.3631H58.0524C58 82.3631 58 82.2988 58 82.2344V81.977C58 81.9127 58.0524 81.784 58.1047 81.7196L58.4189 81.5909C58.3665 81.5909 58.3665 81.5909 58.4189 81.5909ZM58.4189 81.5909H58.3665L58.1047 81.784C58.0524 81.8483 58 81.977 58 82.0414V82.2988C58 82.3631 58.0524 82.4275 58.1047 82.4275H58.1571L58.3665 82.2344C58.4189 82.1701 58.4712 82.0414 58.4712 81.977V81.7196C58.4712 81.5909 58.4189 81.5909 58.4189 81.5909Z" fill="#777777"/>
<path d="M58.6805 81.9127C58.6282 81.9127 58.6282 81.8484 58.6282 81.784V81.5266C58.6282 81.4622 58.6805 81.3336 58.7329 81.2692L58.9423 81.0762H58.9946C59.047 81.0762 59.047 81.1405 59.047 81.2048V81.4622C59.047 81.5266 58.9946 81.6553 58.9423 81.7196L58.7329 81.9127H58.6805Z" fill="#38373E"/>
<path d="M58.9946 81.1405C59.047 81.1405 59.047 81.2049 59.047 81.2692V81.5266C59.047 81.5909 58.9946 81.7197 58.9423 81.784L58.7329 81.9771H58.6805C58.6282 81.9771 58.6282 81.9127 58.6282 81.8483V81.5909C58.6282 81.5266 58.6805 81.3979 58.7329 81.3335L58.9946 81.1405ZM58.9946 81.1405H58.9423L58.7329 81.3335C58.6805 81.3979 58.6282 81.5266 58.6282 81.5909V81.8483C58.6282 81.9127 58.6805 81.9771 58.7329 81.9771H58.7853L58.9946 81.784C59.047 81.7197 59.0994 81.5909 59.0994 81.5266V81.2692C59.0994 81.1405 59.047 81.1405 58.9946 81.1405Z" fill="#777777"/>
<path d="M59.3089 81.462C59.2566 81.462 59.2566 81.3977 59.2566 81.3334V81.076C59.2566 81.0116 59.3089 80.8829 59.3613 80.8186L59.5707 80.6255H59.623C59.6754 80.6255 59.6754 80.6898 59.6754 80.7542V81.0116C59.6754 81.076 59.623 81.2046 59.5707 81.269L59.3613 81.462C59.3089 81.462 59.3089 81.462 59.3089 81.462Z" fill="#38373E"/>
<path d="M59.623 80.6899C59.6754 80.6899 59.6754 80.7543 59.6754 80.8186V81.076C59.6754 81.1404 59.623 81.2691 59.5707 81.3334L59.3613 81.4621H59.3089C59.2566 81.4621 59.2566 81.3978 59.2566 81.3334V81.076C59.2566 81.0117 59.3089 80.883 59.3613 80.8186L59.623 80.6899ZM59.623 80.6899H59.5707L59.3613 80.883C59.3089 80.9473 59.2566 81.076 59.2566 81.1404V81.3978C59.2566 81.4621 59.3089 81.5265 59.3613 81.5265H59.4136L59.623 81.3334C59.6754 81.2691 59.7277 81.1404 59.7277 81.076V80.8186C59.6754 80.6899 59.6754 80.6899 59.623 80.6899Z" fill="#777777"/>
<path d="M59.8849 81.0117C59.8325 81.0117 59.8325 80.9474 59.8325 80.883V80.6256C59.8325 80.5612 59.8849 80.4326 59.9373 80.3682L60.1467 80.1752H60.199C60.2514 80.1752 60.2514 80.2395 60.2514 80.3038V80.5612C60.2514 80.6256 60.199 80.7543 60.1467 80.8186L59.9373 81.0117C59.9373 81.0117 59.9373 81.0117 59.8849 81.0117Z" fill="#38373E"/>
<path d="M60.2513 80.2395C60.3036 80.2395 60.3036 80.3039 60.3036 80.3682V80.6256C60.3036 80.69 60.2513 80.8187 60.1989 80.883L59.9895 81.0761H59.9371C59.8848 81.0761 59.8848 81.0117 59.8848 80.9474V80.69C59.8848 80.6256 59.9371 80.4969 59.9895 80.4326L60.2513 80.2395C60.1989 80.2395 60.1989 80.2395 60.2513 80.2395ZM60.2513 80.2395H60.1989L59.9895 80.4326C59.9371 80.4969 59.8848 80.6256 59.8848 80.69V80.9474C59.8848 81.0117 59.9371 81.0761 59.9895 81.0761H60.0419L60.1989 80.8187C60.2513 80.7543 60.3036 80.6256 60.3036 80.5613V80.3039C60.3036 80.2395 60.3036 80.2395 60.2513 80.2395Z" fill="#777777"/>
<path d="M58.0524 83.0709C58 83.0709 58 83.0065 58 82.9421V82.6847C58 82.6205 58.0524 82.4917 58.1047 82.4273L58.3142 82.2343H58.3665C58.4189 82.2343 58.4189 82.2987 58.4189 82.3631V82.6205C58.4189 82.6847 58.3665 82.8135 58.3142 82.8778L58.1047 83.0709C58.1047 83.0709 58.1047 83.0709 58.0524 83.0709Z" fill="#38373E"/>
<path d="M58.4189 82.2987C58.4712 82.2987 58.4712 82.3631 58.4712 82.4274V82.6848C58.4712 82.7492 58.4189 82.8779 58.3665 82.9422L58.1047 83.071H58.0524C58 83.071 58 83.0066 58 82.9422V82.6848C58 82.6205 58.0524 82.4918 58.1047 82.4274L58.4189 82.2987C58.3665 82.2987 58.3665 82.2987 58.4189 82.2987ZM58.4189 82.2987H58.3665L58.1047 82.4918C58.0524 82.5561 58 82.6848 58 82.7492V83.0066C58 83.071 58.0524 83.1353 58.1047 83.1353H58.1571L58.3665 82.9422C58.4189 82.8779 58.4712 82.7492 58.4712 82.6848V82.4274C58.4712 82.2987 58.4712 82.2987 58.4189 82.2987Z" fill="#777777"/>
<path d="M58.6805 82.6204C58.6282 82.6204 58.6282 82.5561 58.6282 82.4918V82.2344C58.6282 82.17 58.6805 82.0413 58.7329 81.977L58.9423 81.7839H58.9946C59.047 81.7839 59.047 81.8482 59.047 81.9126V82.17C59.047 82.2344 58.9946 82.363 58.9423 82.4274L58.7329 82.6204H58.6805Z" fill="#38373E"/>
<path d="M58.9946 81.8483C59.047 81.8483 59.047 81.9127 59.047 81.977V82.2344C59.047 82.2988 58.9946 82.4275 58.9423 82.4918L58.7329 82.6849H58.6805C58.6282 82.6849 58.6282 82.6205 58.6282 82.5562V82.2988C58.6282 82.2344 58.6805 82.1057 58.7329 82.0414L58.9946 81.8483ZM58.9946 81.8483H58.9423L58.7329 82.0414C58.6805 82.1057 58.6282 82.2344 58.6282 82.2988V82.5562C58.6282 82.6205 58.6805 82.6849 58.7329 82.6849H58.7853L58.9946 82.4918C59.047 82.4275 59.0994 82.2988 59.0994 82.2344V81.977C59.0994 81.8483 59.047 81.8483 58.9946 81.8483Z" fill="#777777"/>
<path d="M59.3089 82.1699C59.2566 82.1699 59.2566 82.1055 59.2566 82.0412V81.7838C59.2566 81.7195 59.3089 81.5907 59.3613 81.5264L59.5707 81.3333H59.623C59.6754 81.3333 59.6754 81.3977 59.6754 81.4621V81.7195C59.6754 81.7838 59.623 81.9125 59.5707 81.9768L59.3613 82.1699H59.3089Z" fill="#38373E"/>
<path d="M59.623 81.3978C59.6754 81.3978 59.6754 81.4621 59.6754 81.5264V81.7838C59.6754 81.8482 59.623 81.9768 59.5707 82.0412L59.3613 82.2342H59.3089C59.2566 82.2342 59.2566 82.17 59.2566 82.1056V81.8482C59.2566 81.7838 59.3089 81.6552 59.3613 81.5908L59.623 81.3978ZM59.623 81.3978H59.5707L59.3613 81.5908C59.3089 81.6552 59.2566 81.7838 59.2566 81.8482V82.1056C59.2566 82.17 59.3089 82.2342 59.3613 82.2342H59.4136L59.623 82.0412C59.6754 81.9768 59.7277 81.8482 59.7277 81.7838V81.5264C59.7277 81.3978 59.6754 81.3978 59.623 81.3978Z" fill="#777777"/>
<path d="M59.9371 81.7194C59.8848 81.7194 59.8848 81.6551 59.8848 81.5908V81.3334C59.8848 81.269 59.9371 81.1403 59.9895 81.076L60.1989 80.8829H60.2513C60.3036 80.8829 60.3036 80.9472 60.3036 81.0116V81.269C60.3036 81.3334 60.2513 81.462 60.1989 81.5264L59.9895 81.7194C59.9371 81.7194 59.9371 81.7194 59.9371 81.7194Z" fill="#38373E"/>
<path d="M60.2513 80.9473C60.3036 80.9473 60.3036 81.0117 60.3036 81.076V81.3334C60.3036 81.3977 60.2513 81.5265 60.1989 81.5909L59.9895 81.7839H59.9371C59.8848 81.7839 59.8848 81.7195 59.8848 81.6551V81.3978C59.8848 81.3334 59.9371 81.2047 59.9895 81.1404L60.2513 80.9473ZM60.2513 80.9473H60.1989L59.9895 81.1404C59.9371 81.2047 59.8848 81.3334 59.8848 81.3978V81.6551C59.8848 81.7195 59.9371 81.7839 59.9895 81.7839H60.0419L60.2513 81.5909C60.3036 81.5265 60.356 81.3977 60.356 81.3334V81.076C60.3036 80.9473 60.3036 80.9473 60.2513 80.9473Z" fill="#777777"/>
<path d="M58.1046 84.0361C58.0522 84.0361 58.0522 83.9717 58.0522 83.9074V83.65C58.0522 83.5856 58.1046 83.4569 58.157 83.3926L58.7852 82.9421H58.8376C58.89 82.9421 58.89 83.0065 58.89 83.0708V83.3282C58.89 83.3926 58.8376 83.5213 58.7852 83.5856L58.157 84.0361C58.1046 84.0361 58.1046 84.0361 58.1046 84.0361Z" fill="#38373E"/>
<path d="M58.7854 82.9421C58.8377 82.9421 58.8377 83.0065 58.8377 83.0708V83.3282C58.8377 83.3926 58.7854 83.5213 58.733 83.5856L58.1047 84.0361H58.0524C58 84.0361 58 83.9717 58 83.9074V83.65C58 83.5856 58.0524 83.4569 58.1047 83.3926L58.7854 82.9421ZM58.7854 82.9421H58.733L58.1047 83.3926C58.0524 83.4569 58 83.5856 58 83.65V83.9074C58 83.9717 58.0524 84.0361 58.1047 84.0361H58.1571L58.7854 83.5856C58.8377 83.5213 58.8901 83.3926 58.8901 83.3282V83.0708C58.8901 83.0065 58.8377 82.9421 58.7854 82.9421Z" fill="#777777"/>
<path d="M59.5707 82.9423C59.5183 82.9423 59.5183 82.8779 59.5183 82.8135V82.5562C59.5183 82.4918 59.5707 82.3631 59.623 82.2988L60.2513 81.8483H60.3036C60.356 81.8483 60.356 81.9127 60.356 81.977V82.2344C60.356 82.2988 60.3036 82.4275 60.2513 82.4918L59.623 82.9423C59.5707 82.9423 59.5707 82.9423 59.5707 82.9423Z" fill="#38373E"/>
<path d="M60.2515 81.9127C60.3038 81.9127 60.3038 81.977 60.3038 82.0414V82.2988C60.3038 82.3631 60.2515 82.4918 60.199 82.5562L59.5708 83.0066H59.5184C59.4661 83.0066 59.4661 82.9423 59.4661 82.8779V82.6205C59.4661 82.5561 59.5184 82.4275 59.5708 82.3631L60.2515 81.9127ZM60.2515 81.8483H60.199L59.5708 82.2988C59.5184 82.3631 59.4661 82.4918 59.4661 82.5562V82.8135C59.4661 82.8779 59.5184 82.9423 59.5708 82.9423H59.6232L60.2515 82.4918C60.3038 82.4275 60.3561 82.2988 60.3561 82.2344V81.977C60.3561 81.9127 60.3038 81.8483 60.2515 81.8483Z" fill="#777777"/>
<path opacity="0.3" d="M115.801 132.555C118.786 134.679 118.786 138.09 115.801 140.213C112.817 142.337 108 142.337 105.016 140.213C102.032 138.09 102.032 134.679 105.016 132.555C108 130.432 112.817 130.432 115.801 132.555Z" fill="#E9E2E1"/>
<path d="M111.037 136.353C111.037 136.288 111.037 136.223 111.037 136.16C111.089 135.516 110.88 134.937 110.67 134.358C110.618 134.1 110.513 133.907 110.356 133.714C109.99 133.392 109.414 133.649 109.204 134.165C109.099 134.358 109.047 134.615 108.942 134.872C108.785 135.323 108.419 135.838 108 135.838C107.424 135.838 106.743 135.644 106.167 135.581C105.958 135.581 105.696 135.581 105.487 135.644C104.963 135.902 104.859 136.867 105.016 137.446C105.12 137.768 105.382 138.026 105.644 138.218C106.063 138.476 106.586 138.605 107.058 138.54C107.529 138.476 108 138.54 108.419 138.797C109.152 139.249 110.042 139.892 110.827 138.991C111.037 138.734 111.141 138.412 111.141 138.09C111.194 137.576 111.037 136.996 111.037 136.353Z" fill="#8F8E99"/>
<path d="M115.173 135.001C115.12 134.744 114.963 134.808 114.859 134.808C114.702 134.744 114.492 134.615 114.387 134.422C114.23 134.228 114.073 134.036 113.916 133.778C113.497 133.264 112.974 132.813 112.45 132.491C112.293 132.363 112.084 132.298 111.927 132.298C111.56 132.234 111.246 132.427 110.88 132.62C110.565 132.813 110.565 133.07 110.565 133.456C110.565 133.649 110.565 133.843 110.618 133.971C110.67 134.358 110.88 134.615 111.089 134.872C111.351 135.194 111.56 135.451 111.874 135.644C112.136 135.773 112.398 135.902 112.66 136.095C112.817 136.223 112.974 136.417 113.079 136.61C113.183 136.739 113.236 136.932 113.34 137.06C113.602 137.253 113.916 137.446 114.23 137.446C114.859 137.511 115.382 137.06 115.382 136.223C115.382 135.966 115.33 135.644 115.33 135.387C115.225 135.259 115.225 135.129 115.173 135.001Z" fill="#5F5F66"/>
<path d="M110.566 115.503C110.723 115.31 110.932 115.246 111.142 115.181C112.084 114.988 112.974 114.538 113.916 114.216C114.335 114.087 114.754 114.023 115.173 114.023L116.063 112.993C116.168 113.959 116.22 114.988 116.168 115.953C115.958 118.077 115.54 123.032 115.382 125.349C115.278 127.15 115.278 128.952 115.278 130.754C115.278 131.526 115.225 132.298 115.33 133.07C115.382 133.779 115.435 134.744 115.121 135.323C114.911 135.838 114.492 136.16 114.021 136.223C113.55 136.288 113.079 136.095 112.765 135.709C112.555 135.452 112.555 134.937 112.555 134.615C112.503 134.293 112.503 133.971 112.503 133.714C112.45 132.813 112.45 131.912 112.45 131.075C112.45 130.111 112.398 129.21 112.346 128.244C112.293 127.601 112.293 127.022 112.241 126.378C112.241 126.056 112.189 125.67 112.189 125.349C112.189 125.091 112.189 124.512 112.084 124.255C111.613 123.161 111.194 122.002 111.142 121.359C111.037 120.458 111.037 119.557 110.984 118.656C110.932 117.82 110.67 117.047 110.566 116.211C110.461 116.018 110.461 115.696 110.566 115.503Z" fill="#38373E"/>
<path d="M114.649 117.498C114.963 116.661 115.54 115.889 116.272 115.503C116.324 114.667 116.272 113.83 116.168 112.993L115.278 114.023C114.859 114.023 114.44 114.087 114.021 114.216C113.079 114.473 112.189 114.924 111.246 115.181C111.037 115.246 110.775 115.246 110.67 115.503C110.566 115.696 110.566 116.018 110.618 116.275C110.723 117.112 110.984 117.884 111.037 118.721C111.089 119.622 111.089 120.522 111.194 121.423C111.246 122.067 111.665 123.225 112.136 124.319C112.241 124.576 112.189 125.156 112.241 125.413C112.293 125.735 112.293 126.121 112.293 126.443C112.346 127.086 112.398 127.665 112.398 128.309C112.45 129.274 112.503 130.175 112.503 131.14C112.503 132.041 112.503 132.942 112.555 133.779C112.555 134.1 112.555 134.422 112.607 134.68C112.66 135.001 112.607 135.516 112.817 135.773C112.974 135.966 113.183 136.095 113.393 136.223C112.607 129.853 112.45 123.482 114.649 117.498Z" fill="#252529"/>
<path d="M114.649 117.498C112.503 123.482 112.607 129.853 113.393 136.16C113.602 136.288 113.864 136.288 114.126 136.288C114.597 136.223 115.016 135.902 115.225 135.387C115.487 134.744 115.487 133.779 115.435 133.135C115.33 132.363 115.382 131.591 115.382 130.818C115.382 129.017 115.382 127.215 115.487 125.413C115.591 123.032 116.063 118.141 116.272 116.018C116.272 115.889 116.272 115.696 116.324 115.567C115.487 115.953 114.911 116.661 114.649 117.498Z" fill="#38373E"/>
<path d="M108.733 126.893C108.733 126.957 108.733 126.957 108.733 127.022C108.785 128.888 108.628 130.754 108.628 132.62C108.628 133.843 108.419 137.189 109.309 137.575C109.78 137.768 110.67 137.961 110.932 137.382C111.874 135.387 112.136 128.437 112.189 126.507C112.189 125.992 112.136 126.185 112.189 125.67C112.189 125.284 112.346 124.705 112.241 124.319C112.084 123.611 111.299 123.997 110.88 124.19C110.304 124.448 109.623 124.576 109.152 125.027C108.628 125.413 108.733 126.185 108.733 126.893Z" fill="#4C4C54"/>
<path d="M108.628 114.023C109.152 113.444 110.723 114.152 111.299 114.216C111.822 114.28 112.398 114.28 112.922 114.28C113.183 114.28 113.498 114.345 113.707 114.28C113.916 114.216 114.073 114.023 114.283 113.959C114.44 113.894 114.911 113.508 115.068 113.637C115.278 113.83 115.016 114.666 114.911 114.988C114.388 117.755 112.922 120.136 112.45 122.903C112.241 124.061 112.293 125.284 112.189 126.507C112.189 126.635 112.136 126.829 112.136 126.957C112.032 127.215 111.874 127.343 111.717 127.536C111.299 127.858 110.827 128.116 110.304 128.244C110.042 128.309 109.78 128.309 109.466 128.309C109.257 128.309 108.995 128.18 108.785 128.309C108.681 127.343 108.733 126.314 108.576 125.284C108.419 124.255 108.419 123.161 108.419 122.067C108.367 119.75 108.314 117.433 108.367 115.117C108.367 114.859 108.367 114.538 108.524 114.28C108.576 114.087 108.576 114.023 108.628 114.023Z" fill="#4C4C54"/>
<path d="M107.738 102.311C107.738 102.569 107.738 103.084 107.948 103.277C108.105 103.405 108.524 103.341 108.681 103.405C109.309 103.47 109.937 103.534 110.565 103.598C110.827 103.598 111.141 103.663 111.403 103.663C112.241 103.663 113.026 103.598 113.864 103.47C114.178 103.405 114.702 103.341 114.963 103.084C115.225 102.826 115.225 102.44 115.173 101.99C115.12 101.282 114.806 100.574 114.23 100.252C113.654 99.9947 113.131 100.123 112.555 100.188C111.246 100.381 109.99 100.703 108.733 101.089C108.524 101.153 108.262 101.217 108.105 101.41C107.895 101.539 107.738 101.925 107.738 102.311Z" fill="white"/>
<path d="M101.194 99.673C101.194 99.6087 101.194 99.48 101.194 99.4156C101.142 98.9008 100.984 98.4504 100.827 97.9999C100.67 97.6138 100.513 97.0991 100.199 96.9059C99.9897 96.7773 99.7803 96.5843 99.5709 96.4555C99.3614 96.2625 99.152 96.1338 98.8902 96.0694C98.7332 96.0051 98.5237 96.0051 98.3667 96.1338C98.3667 96.1338 98.3667 96.1338 98.3667 96.1981C98.3667 96.1981 98.3667 96.1981 98.3667 96.2625C98.419 96.3269 98.4714 96.3912 98.5237 96.3912C98.6285 96.4555 98.7332 96.4555 98.7855 96.5199C98.8902 96.5843 98.9426 96.6485 99.0473 96.7129C99.0997 96.7773 99.2044 96.9059 99.152 97.0347C99.0997 97.0991 99.0473 97.1633 98.9949 97.1633C98.8902 97.2277 98.8379 97.2921 98.7332 97.3565C98.6808 97.4207 98.6285 97.4851 98.6285 97.5495C98.6285 97.6138 98.6808 97.6781 98.6808 97.7425C98.6285 97.8712 98.5237 97.8069 98.5237 97.9355C98.5237 97.9999 98.5237 97.9999 98.5237 98.0643C98.5237 98.1286 98.4714 98.1286 98.419 98.1929C98.3667 98.2573 98.3667 98.3217 98.3667 98.4504V98.5147L98.419 98.5791C98.5761 98.7078 98.7855 98.7078 98.9426 98.7721C99.0997 98.8365 99.152 98.9652 99.2567 99.1582C99.3091 99.2869 99.3615 99.48 99.4661 99.6087C99.5185 99.8017 99.6232 99.9948 99.7279 100.123C99.8327 100.252 100.042 100.51 100.042 100.638L101.194 99.673Z" fill="#FFBFA2"/>
<path d="M107.948 101.41V101.346C107.948 100.96 107.948 100.445 108.157 100.059C108.314 99.7372 108.681 99.5442 108.943 99.3512C109.78 98.7076 110.723 98.1285 111.665 97.7424C113.131 97.0989 114.597 95.8119 116.116 96.8415C116.272 96.9702 116.429 97.0989 116.534 97.2276C117.32 98.1928 117.215 99.7372 117.11 100.96C116.953 102.569 116.587 104.049 116.324 105.657C116.272 105.979 116.22 106.301 116.22 106.623C116.116 107.781 116.168 108.939 116.063 110.033C115.958 110.998 116.22 112.157 116.324 113.122C116.377 113.701 116.429 114.409 116.168 114.924C115.853 115.503 115.278 115.696 114.754 115.825C112.817 116.34 110.775 116.79 108.943 115.953C108.628 115.825 108.262 115.567 108.157 115.181C108.053 114.924 108.105 114.602 108.105 114.345C108.367 111.127 108.419 107.91 108.157 104.757C108.053 103.663 107.948 102.569 107.948 101.41Z" fill="#F2EBEB"/>
<path d="M111.194 103.148C111.351 102.44 111.456 101.732 111.142 101.024C110.88 100.316 110.356 99.8017 109.78 99.6086C109.257 99.4156 108.471 99.4799 108.157 100.123C107.948 100.509 107.948 100.96 107.948 101.41V101.475C107.948 102.633 108.053 103.727 108.157 104.885C108.419 108.103 108.367 111.32 108.105 114.473C108.105 114.731 108.053 115.053 108.157 115.31C108.21 115.503 108.367 115.696 108.524 115.825C108.471 114.538 108.576 113.251 108.785 112.028C109.047 110.291 109.466 108.618 109.99 107.009C110.251 106.172 110.513 105.4 110.827 104.564C110.932 104.049 111.089 103.598 111.194 103.148Z" fill="#E9E2E1"/>
<path d="M110.88 98.1285C111.141 97.9999 111.403 97.8711 111.613 97.7425C112.607 97.292 113.655 96.5198 114.702 96.4555C115.225 97.4207 114.806 98.4503 114.073 98.9651C113.131 99.5443 111.927 99.4799 111.037 98.7077C110.827 98.5791 110.67 98.3216 110.88 98.1285Z" fill="#CDDCFB"/>
<path d="M108.419 99.1581C108.995 98.6433 109.728 98.3215 110.408 98.5789C110.67 98.7077 110.88 98.9007 111.089 99.1581C111.246 99.3512 111.403 99.5442 111.508 99.8016C111.77 100.381 111.77 101.089 111.56 101.668C111.298 102.376 110.88 102.762 110.304 103.083C109.833 103.405 109.361 103.727 108.89 104.049C107.948 104.757 107.058 105.4 106.063 105.979C105.487 106.301 104.806 106.494 104.23 106.237C103.812 106.044 103.55 105.593 103.445 105.078C103.236 103.856 104.021 103.534 104.073 103.405C107.319 100.316 108.471 99.0938 108.419 99.1581Z" fill="#F7F2F2"/>
<path d="M100.042 99.2224C99.885 99.3511 99.5709 99.7372 99.6232 100.059C99.6756 100.316 99.9374 100.638 100.042 100.831C100.409 101.475 100.775 102.054 101.194 102.633C101.351 102.89 101.56 103.148 101.717 103.47C102.241 104.242 102.817 104.95 103.445 105.593C103.707 105.85 104.074 106.237 104.388 106.301C104.702 106.365 104.964 106.108 105.173 105.786C105.592 105.207 105.801 104.499 105.592 103.791C105.382 103.083 104.964 102.633 104.545 102.183C103.55 101.153 102.555 100.188 101.456 99.2868C101.246 99.1581 101.089 98.9651 100.827 98.9007C100.618 98.8363 100.304 98.965 100.042 99.2224Z" fill="#F7F2F2"/>
<path d="M111.246 96.1981C111.194 95.7476 110.88 95.8119 111.037 95.4259C111.141 95.0397 111.351 94.718 111.613 94.4606C111.874 94.2032 112.189 94.0745 112.503 94.0745C112.607 94.0745 112.712 94.1389 112.817 94.1389C113.131 94.1389 113.445 94.0745 113.707 94.1389C114.021 94.2032 114.283 94.2032 114.283 94.6537C114.283 95.2329 114.283 95.7476 114.388 96.2624C114.44 96.5841 114.597 96.8415 114.597 97.1633C114.649 97.7425 114.283 98.3216 113.864 98.579C113.34 98.9008 112.712 98.9008 112.136 98.772C111.822 98.7077 111.456 98.6434 111.299 98.3216C111.194 98.0642 111.246 97.7425 111.246 97.4851C111.246 97.0346 111.298 96.6485 111.246 96.1981Z" fill="#FFBFA2"/>
<path d="M109.937 90.2134C109.78 90.4708 109.623 90.7926 109.571 91.1787C109.466 91.9509 109.728 92.7875 109.571 93.5597C109.414 94.3319 109.728 96.0693 110.932 96.5198C111.561 96.7772 112.765 96.4554 113.183 96.2624C113.707 95.9406 114.074 95.2971 114.388 94.7179C117.005 89.6344 111.718 87.5751 109.937 90.2134Z" fill="#FFBFA2"/>
<path d="M115.173 89.184C115.068 89.0552 114.911 88.8622 114.702 88.7978C114.649 88.7334 114.597 88.7334 114.545 88.6692C114.492 88.6048 114.492 88.5404 114.492 88.5404C114.388 88.283 114.231 88.1544 114.074 88.0256C113.393 87.5752 112.555 87.5108 111.77 87.6396C111.508 87.7039 111.246 87.7682 110.985 87.897C110.723 88.0256 110.461 88.283 110.252 88.5404C109.937 88.9266 109.623 89.3126 109.466 89.8274C109.414 90.0848 109.362 90.2779 109.309 90.5353C109.257 90.7283 109.309 90.9857 109.466 91.1144C109.519 91.1788 109.623 91.1788 109.676 91.2431C109.937 91.4362 109.99 91.951 110.094 92.2727C110.147 92.4657 110.304 92.5945 110.356 92.8519C110.409 93.1093 110.409 93.3667 110.461 93.5597C110.513 93.6884 110.566 93.8171 110.67 93.8171C110.723 93.8171 110.723 93.8171 110.775 93.7528C110.88 93.6884 110.932 93.4953 110.985 93.3667C111.037 93.2379 111.037 93.0449 111.089 92.9163C111.089 92.9163 111.089 92.8519 111.142 92.8519H111.194C111.351 92.8519 111.403 92.9805 111.456 93.1736C111.508 93.3667 111.56 93.4953 111.613 93.6884C111.665 93.9458 111.665 94.2032 111.718 94.525C111.77 94.8467 111.822 95.1041 111.979 95.3615C112.346 95.8764 113.079 95.812 113.55 95.6833C113.707 95.6189 113.916 95.5546 114.074 95.4902C114.44 95.2972 114.702 94.8467 114.964 94.3963C115.173 94.0102 115.383 93.6241 115.54 93.1736C115.592 92.9163 115.644 92.6589 115.644 92.4015C115.696 91.3718 115.801 90.0205 115.173 89.184Z" fill="#242A31"/>
<path d="M111.351 92.4014C111.822 92.2727 112.032 92.9806 111.77 93.6241C111.717 93.8171 111.56 94.0101 111.403 94.1389C110.618 95.2328 110.304 94.2675 110.566 93.8815C111.142 93.0449 110.723 92.5301 111.351 92.4014Z" fill="#FFBFA2"/>
<path d="M111.351 93.5598C111.403 93.4954 111.927 92.9807 111.508 92.7876C111.403 92.7233 111.299 92.852 111.299 92.9807C111.299 93.045 111.351 93.1094 111.351 93.1738C111.351 93.2381 111.351 93.2381 111.351 93.3024C111.299 93.4312 111.142 93.5598 111.194 93.6886C111.142 93.8172 111.299 93.6242 111.351 93.5598Z" fill="#F3A984"/>
<path d="M110.723 88.9264C109.1 88.5403 107.791 88.669 107.686 89.1838C107.581 89.7629 108.943 90.5995 110.775 91.1143C110.88 91.1143 110.985 91.1787 111.037 91.1787L110.723 88.9264Z" fill="#DAD0D0"/>
<path d="M115.801 92.2727C115.801 92.0796 115.801 91.8222 115.801 91.6292C115.644 85.7734 109.833 86.3525 109.152 90.2778C109.152 90.3422 109.152 90.4709 109.1 90.5352C110.827 92.5944 113.864 93.9458 115.801 92.2727Z" fill="#F2EBEB"/>
<path d="M109.1 90.4067C109.1 90.4709 109.1 90.4709 109.1 90.5353C109.152 90.5997 109.204 90.6641 109.257 90.7283C110.88 90.1493 113.079 92.0797 114.702 92.8519C114.754 92.8519 114.859 92.7876 114.911 92.7876C114.388 89.6988 111.246 89.7631 109.1 90.4067Z" fill="#F7F2F2"/>
<path d="M113.026 89.2483C111.77 88.7978 110.252 89.2483 109.204 90.1491C109.204 90.2135 109.204 90.2135 109.204 90.2779C109.204 90.3422 109.204 90.4709 109.152 90.5353C109.204 90.5996 109.309 90.7283 109.361 90.7927C109.414 90.7283 109.519 90.5996 109.623 90.5353C111.717 89.4413 113.288 91.6292 114.964 92.7875H115.016C114.859 91.3074 114.074 89.8917 113.026 89.2483Z" fill="#E9E2E1"/>
<path opacity="0.4" d="M139.309 123.611C142.765 126.057 142.765 130.046 139.309 132.491C135.853 134.937 130.252 134.937 126.849 132.491C123.393 130.046 123.393 126.057 126.849 123.611C130.304 121.166 135.906 121.166 139.309 123.611Z" fill="#E9E2E1"/>
<path d="M137.064 90.6641H133.818C134.028 91.0502 134.237 91.4363 134.499 91.8224C137.116 95.4903 137.221 96.8417 138.373 96.8417C138.687 96.8417 139.63 95.5547 139.63 95.5547C139.316 93.9459 137.536 91.5006 137.064 90.6641Z" fill="#F3A984"/>
<path d="M134.282 87.8326C134.859 87.3178 135.591 88.09 136.063 88.5404C136.639 89.1196 137.11 89.763 137.529 90.4709C137.738 90.857 138.052 91.3075 138 91.7579C137.948 92.2727 137.79 92.7231 137.477 93.1093C137.267 93.3667 137.005 93.6241 136.744 93.8171C136.272 94.1388 136.115 93.8171 135.801 93.3667C135.487 92.9162 135.173 92.4014 134.807 91.9509C133.707 90.3422 133.654 88.4117 134.282 87.8326Z" fill="#5F5F66"/>
<path d="M131.246 125.735C131.246 125.863 131.403 126.057 131.456 126.185C131.561 126.378 131.665 126.636 131.77 126.829C131.874 127.086 131.927 127.472 132.032 127.73C132.189 128.309 132.345 128.952 132.503 129.531C132.555 129.789 132.607 130.046 132.66 130.239C132.66 130.497 132.66 130.754 132.555 131.012C132.345 131.397 131.979 131.591 131.613 131.719C131.403 131.784 131.194 131.848 130.984 131.784C130.828 131.719 130.723 131.526 130.618 131.333C130.199 130.497 129.937 129.66 129.675 128.695C129.519 128.18 129.414 127.73 129.466 127.215C129.466 126.957 129.519 126.636 129.623 126.378C129.675 126.25 129.728 126.121 129.832 125.992C129.937 125.863 129.99 125.863 130.042 125.735C130.147 125.477 130.199 125.156 130.356 124.963C130.513 124.769 130.775 124.77 130.932 124.898C131.141 125.027 131.299 125.22 131.351 125.477C131.351 125.606 131.246 125.67 131.246 125.735Z" fill="#424148"/>
<path d="M134.073 123.675C134.282 123.868 134.44 124.062 134.597 124.19C134.754 124.383 134.963 124.512 135.12 124.641C135.487 125.027 135.906 125.349 136.324 125.735C136.639 125.992 136.952 126.249 137.267 126.507C137.477 126.764 137.686 127.022 137.843 127.279C137.948 127.472 137.948 127.536 137.895 127.73C137.843 127.923 137.79 128.051 137.686 128.244C137.529 128.502 137.372 128.823 137.11 128.952C136.848 129.081 136.586 129.016 136.324 128.952C135.958 128.759 135.539 128.437 135.277 128.051C135.015 127.665 134.702 127.343 134.282 127.15C133.969 127.022 133.602 126.957 133.34 126.7C133.078 126.507 132.921 126.121 132.869 125.735C132.817 125.284 132.973 124.898 132.921 124.448C132.921 124.19 132.817 123.868 132.869 123.611C132.921 123.354 133.131 123.225 133.34 123.161C133.549 123.161 133.759 123.225 133.916 123.418L134.073 123.675Z" fill="#38373E"/>
<path d="M132.974 113.379C132.921 112.543 132.974 111.385 132.921 110.548C132.817 108.811 131.456 103.341 134.282 102.247C134.702 102.054 135.382 101.024 135.748 101.41C135.801 101.475 136.063 101.861 136.219 102.633C136.324 103.083 136.639 103.469 136.744 104.113C136.848 105.143 136.9 106.365 136.744 107.652C136.586 109.132 135.435 123.611 135.12 124.641C134.754 125.67 133.393 125.735 132.974 124.962C132.503 124.061 132.398 118.141 133.131 114.023C133.026 113.83 132.974 113.637 132.974 113.379Z" fill="#1499FC"/>
<path d="M129.256 112.028C128.733 109.068 128.523 105.851 129.571 102.183L129.728 101.925C130.356 102.311 131.141 102.247 131.874 102.311C133.445 102.569 133.602 102.891 134.649 102.054C134.859 103.405 135.12 104.757 135.12 105.014C135.173 106.558 133.969 106.687 133.969 107.524C133.864 109.39 133.131 113.058 132.869 114.988C132.817 115.503 132.712 116.018 132.555 116.533C132.502 117.176 132.502 117.82 132.45 118.463C132.136 123.225 132.136 125.606 131.822 126.636C131.56 127.472 130.67 127.408 130.094 127.15C129.832 127.022 129.623 126.893 129.466 126.571C129.309 126.314 129.309 125.992 129.256 125.67C128.942 122.775 128.733 120.329 129.256 117.498C129.466 116.082 129.519 113.508 129.256 112.028Z" fill="#13B7FD"/>
<path d="M129.623 99.3513C129.675 99.8661 129.728 100.317 129.728 100.831C129.728 100.381 129.675 99.8661 129.623 99.3513Z" fill="#F3A984"/>
<path d="M129.309 101.99C129.361 101.732 129.361 101.475 129.361 101.217C129.361 100.896 129.257 100.638 129.257 100.317C129.204 99.8661 129.204 99.4156 129.152 98.9008C128.995 97.7425 128.681 96.6486 128.471 95.4902C128.262 94.4607 127.948 93.1093 128.209 92.0797C128.419 91.1788 129.099 90.471 129.675 89.9562C130.408 89.3126 131.874 88.4762 133.34 87.897C133.864 87.7039 134.597 87.4465 135.12 87.7683C135.591 88.09 135.801 88.7336 135.958 89.377C136.324 90.5353 136.324 91.7579 136.324 92.9806C136.377 94.3963 136.324 95.7476 136.324 97.1634C136.324 98.7721 136.377 100.445 136.534 102.054C136.586 102.826 136.639 103.598 136.848 104.306C137.005 104.95 136.848 105.529 136.534 105.979C136.22 106.43 135.801 106.687 135.382 106.945C133.759 107.781 132.032 108.039 130.303 107.974C129.937 107.974 129.623 107.974 129.309 107.781C128.209 107.138 128.681 104.95 128.89 103.791C128.995 103.212 129.204 102.569 129.309 101.99Z" fill="#8F8E99"/>
<path d="M129.152 98.9008C128.995 97.7424 128.681 96.6485 128.471 95.4902C128.262 94.4606 127.948 93.1093 128.209 92.0796C128.366 91.5648 128.628 91.1144 128.942 90.7283C130.251 91.6936 131.246 93.1736 131.246 95.1685C131.299 99.4799 131.246 103.727 131.037 107.974C130.775 107.974 130.566 107.974 130.303 107.974C129.937 107.974 129.623 107.974 129.309 107.781C128.209 107.138 128.681 104.95 128.89 103.791C128.995 103.212 129.152 102.633 129.257 101.99C129.309 101.732 129.309 101.475 129.309 101.217C129.309 100.896 129.204 100.638 129.204 100.316C129.204 99.8016 129.204 99.3512 129.152 98.9008Z" fill="#5F5F66"/>
<path d="M130.984 88.8622C130.932 90.7926 133.916 90.857 133.864 88.9909C133.811 86.4813 133.654 86.1595 132.712 85.7733C132.45 85.6447 132.188 85.5803 131.874 85.5803C130.827 85.5803 131.246 86.2239 131.299 86.6743C131.403 88.0256 131.036 88.1543 130.984 88.8622Z" fill="#F5A783"/>
<path d="M130.984 88.8622C130.984 88.1543 131.403 87.9613 131.246 86.6743C131.194 86.2239 130.827 85.5803 131.822 85.5803C132.084 85.5803 132.398 85.6447 132.66 85.7733C133.602 86.1595 133.759 86.4813 133.811 88.8622C132.974 88.7335 132.293 87.6395 131.456 88.283C131.246 88.4761 131.089 88.7335 130.984 89.0552C130.984 89.0552 130.984 88.9909 130.984 88.8622Z" fill="#EE9C76"/>
<path d="M131.508 88.3473C132.345 87.7038 133.078 88.7977 133.864 88.9264C133.864 88.9907 133.864 88.9907 133.864 89.0551C133.916 90.7925 131.194 90.8569 131.036 89.1838C131.141 88.8621 131.246 88.6047 131.508 88.3473Z" fill="#F5A783"/>
<path d="M135.225 82.8777C135.435 83.3281 135.591 83.8429 135.591 84.3578C135.591 84.6152 135.539 84.8082 135.487 85.0656C135.435 85.2586 135.33 85.4517 135.33 85.7091C135.33 85.9665 135.487 86.2882 135.539 86.5456C135.591 86.7387 135.644 86.9961 135.591 87.2535C135.539 87.3822 135.487 87.5109 135.435 87.5752C135.173 88.1544 135.435 88.9266 134.911 89.3127C134.806 89.4414 134.649 89.4414 134.492 89.4414C134.335 89.4414 133.498 89.184 133.183 88.9909C132.817 88.7979 132.503 88.2831 132.24 87.9613C132.032 87.704 131.717 87.3178 131.56 86.9961C131.507 86.8674 131.612 86.8674 131.507 86.803C131.456 86.803 131.403 86.3526 131.351 86.3526C131.298 86.3526 131.194 86.2239 131.141 86.2239C131.036 86.1596 130.984 86.4813 130.932 86.2882C130.775 85.6448 130.565 84.9369 130.618 84.2291C130.618 83.5855 130.618 83.0064 130.984 82.4916C131.246 82.1055 131.612 81.7837 131.979 81.5907C132.555 81.3333 133.236 81.2689 133.864 81.5263C134.387 81.7194 134.911 82.2342 135.225 82.8777Z" fill="#FFBFA2"/>
<path d="M130.565 84.1648C130.565 83.5212 130.565 82.9422 130.932 82.4274C131.194 82.0412 131.56 81.7195 131.927 81.5264C132.293 81.3334 132.66 81.269 133.078 81.3334C133.654 82.749 132.817 84.5509 133.445 86.0309C133.654 86.3527 134.073 86.6101 134.073 87.0605C134.23 87.8327 133.602 88.5405 133.916 89.3128C133.654 89.2484 133.288 89.1197 133.131 88.991C132.765 88.798 132.45 88.2831 132.189 87.9614C131.979 87.704 131.665 87.3179 131.508 86.9961C131.456 86.8675 131.56 86.8675 131.456 86.8031C131.403 86.8031 131.351 86.3527 131.298 86.3527C131.246 86.3527 131.141 86.224 131.089 86.224C130.984 86.1596 130.932 86.4813 130.879 86.2883C130.775 85.5805 130.565 84.8726 130.565 84.1648Z" fill="#F8B495"/>
<path d="M133.236 83.4569C133.078 83.4569 132.921 83.4569 132.817 83.5211C132.607 83.6499 132.45 83.9717 132.398 84.2933C132.293 85.0012 132.503 85.6447 132.503 86.2882C132.503 86.4169 132.503 86.4813 132.45 86.61C132.345 86.8674 132.136 86.7387 132.032 86.5456C131.979 86.4169 131.874 86.3526 131.822 86.2239C131.77 86.0952 131.665 86.0308 131.56 86.0308C131.403 85.9665 131.246 86.1595 131.246 86.3526C131.246 86.5456 131.246 86.7387 131.299 86.8674C131.299 86.9317 131.403 87.1891 131.299 87.1891C131.194 87.1891 130.303 86.0308 130.251 84.1003C130.199 82.2342 131.299 81.8481 131.299 81.8481C131.299 81.8481 131.77 80.8828 132.974 80.9472C133.602 81.0115 134.23 81.2689 134.807 81.655L134.859 81.7194C135.12 81.9124 135.382 82.1698 135.54 82.4916C136.011 83.3925 135.382 84.1003 134.597 83.9717C134.23 83.9073 133.916 83.7143 133.55 83.5211C133.445 83.5211 133.34 83.4569 133.236 83.4569Z" fill="#C99C83"/>
<path d="M133.236 83.4568C133.078 83.4568 132.921 83.4568 132.817 83.5212C132.607 83.6499 132.45 83.9716 132.398 84.2934C132.293 85.0012 132.503 85.6448 132.503 86.2883C132.503 86.4169 132.503 86.4813 132.45 86.61C132.345 86.8674 132.136 86.7387 132.032 86.5457C131.979 86.4169 131.874 86.3526 131.822 86.2239C131.77 86.0952 131.665 86.0309 131.56 86.0309C131.403 85.9665 131.246 86.1595 131.246 86.3526C131.246 86.5457 131.246 86.7387 131.299 86.8674C131.299 86.9317 131.403 87.1891 131.299 87.1891C131.194 87.1891 130.303 86.0309 130.251 84.1004C130.199 82.2342 131.299 81.8481 131.299 81.8481C131.299 81.8481 131.927 82.1698 132.345 82.4916C132.765 82.8134 133.236 83.4568 133.236 83.4568Z" fill="#B98C74"/>
<path d="M131.403 85.4517C130.932 85.3874 130.827 86.0953 131.141 86.6744C131.246 86.8031 131.403 86.9961 131.507 87.1248C132.345 87.9614 132.502 87.0605 132.293 86.7387C131.665 86.0309 131.979 85.5161 131.403 85.4517Z" fill="#F8B495"/>
<path d="M131.613 86.6099C131.561 86.5456 131.089 86.2239 131.403 85.9665C131.508 85.9021 131.613 86.0308 131.613 86.0951C131.613 86.1595 131.613 86.2239 131.613 86.2882C131.613 86.3525 131.613 86.3525 131.665 86.4169C131.717 86.4813 131.874 86.6099 131.822 86.7386C131.77 86.803 131.613 86.6099 131.613 86.6099Z" fill="#F3A984"/>
<path d="M145.644 98.4504C145.54 97.8712 145.225 97.6138 144.807 97.4852C143.34 96.9704 138.21 92.2728 137.529 95.1042C137.424 95.5547 137.477 96.3269 137.738 96.6486C138.105 97.0991 141.822 98.193 143.916 99.3513C144.126 99.48 144.231 99.287 144.44 99.1582C144.807 98.9652 145.749 98.9008 145.644 98.4504Z" fill="#F3A984"/>
<path d="M127.581 94.4607C127.528 92.2085 128.419 90.6641 129.152 90.7284C129.885 90.7928 130.147 92.3372 129.78 95.8765C129.675 96.7129 130.356 99.3513 129.832 100.831C129.519 101.732 129.099 101.604 128.89 101.346C128.681 101.089 128.314 101.411 128.209 100.96C128.052 99.9305 127.633 97.5495 127.581 94.4607Z" fill="#FFBFA2"/>
<path d="M127.477 94.3964C127.477 93.7528 127.581 93.045 127.738 92.4658C127.948 91.758 128.471 90.6641 129.204 90.7284C129.78 90.7927 129.99 91.6293 130.094 92.2084C130.199 92.7876 130.147 93.3024 130.199 93.8816C130.251 94.5894 130.199 95.2972 130.147 96.0051C130.094 96.2625 130.042 96.5842 129.885 96.7773C129.675 96.9703 129.414 96.9703 129.152 96.906C127.005 96.7129 127.529 95.3616 127.477 94.3964Z" fill="#8F8E99"/>
<path d="M131.246 105.078V105.207L136.901 109.197V109.068L131.246 105.078Z" fill="#D0C6C6"/>
<path d="M136.901 109.068V109.197L148 101.346V101.153L136.901 109.068Z" fill="#DAD0D0"/>
<path d="M131.246 105.079L136.901 109.068L148 101.153L142.346 97.1635L131.246 105.079Z" fill="#F7F2F2"/>
<path d="M131.246 104.821V104.95L136.901 108.939V108.811L131.246 104.821Z" fill="#D0C6C6"/>
<path d="M136.901 108.811V108.939L148 101.089V100.96L136.901 108.811Z" fill="#DAD0D0"/>
<path d="M131.246 104.821L136.901 108.811L148 100.96L142.346 96.9059L131.246 104.821Z" fill="#F7F2F2"/>
<path d="M131.246 104.564V104.692L136.901 108.746V108.553L131.246 104.564Z" fill="#D0C6C6"/>
<path d="M136.901 108.553V108.746L148 100.831V100.703L136.901 108.553Z" fill="#DAD0D0"/>
<path d="M131.246 104.564L136.901 108.553L148 100.703L142.346 96.7129L131.246 104.564Z" fill="#F7F2F2"/>
<path d="M131.246 104.306V104.435L136.901 108.489V108.36L131.246 104.306Z" fill="#D0C6C6"/>
<path d="M136.901 108.36V108.489L148 100.574V100.445L136.901 108.36Z" fill="#DAD0D0"/>
<path d="M131.246 104.306L136.901 108.36L148 100.445L142.346 96.4555L131.246 104.306Z" fill="#F7F2F2"/>
<path d="M131.246 104.049V104.242L136.901 108.232V108.103L131.246 104.049Z" fill="#D0C6C6"/>
<path d="M136.901 108.103V108.232L148 100.381V100.188L136.901 108.103Z" fill="#DAD0D0"/>
<path d="M131.246 104.049L136.901 108.103L148 100.188L142.346 96.1981L131.246 104.049Z" fill="#F7F2F2"/>
<path d="M131.246 103.856V103.984L136.901 107.974V107.845L131.246 103.856Z" fill="#D0C6C6"/>
<path d="M136.901 107.845V107.974L148 100.123V99.9948L136.901 107.845Z" fill="#DAD0D0"/>
<path d="M131.246 103.856L136.901 107.845L148 99.9947L142.346 95.9407L131.246 103.856Z" fill="#F7F2F2"/>
<path d="M131.246 103.598V103.727L136.901 107.781V107.588L131.246 103.598Z" fill="#D0C6C6"/>
<path d="M136.901 107.588V107.781L148 99.8661V99.7375L136.901 107.588Z" fill="#DAD0D0"/>
<path d="M131.246 103.598L136.901 107.588L148 99.7374L142.346 95.7477L131.246 103.598Z" fill="#F7F2F2"/>
<path d="M131.246 103.341V103.47L136.901 107.524V107.395L131.246 103.341Z" fill="#D0C6C6"/>
<path d="M136.901 107.395V107.524L148 99.6088V99.4801L136.901 107.395Z" fill="#DAD0D0"/>
<path d="M131.246 103.341L136.901 107.395L148 99.48L142.346 95.4903L131.246 103.341Z" fill="#F7F2F2"/>
<path d="M131.246 103.084V103.277L136.901 107.266V107.138L131.246 103.084Z" fill="#D0C6C6"/>
<path d="M136.901 107.138V107.266L148 99.3514V99.2227L136.901 107.138Z" fill="#DAD0D0"/>
<path d="M131.246 103.084L136.901 107.138L148 99.2226L142.346 95.2329L131.246 103.084Z" fill="#F7F2F2"/>
<path d="M131.246 102.89V103.019L136.901 107.009V106.88L131.246 102.89Z" fill="#D0C6C6"/>
<path d="M136.901 106.88V107.009L148 99.158V99.0292L136.901 106.88Z" fill="#DAD0D0"/>
<path d="M131.246 102.89L136.901 106.88L148 99.0293L142.346 94.9753L131.246 102.89Z" fill="#F7F2F2"/>
<path d="M131.246 102.633V102.762L136.901 106.751V106.623L131.246 102.633Z" fill="#D0C6C6"/>
<path d="M136.901 106.623V106.751L148 98.9006V98.7719L136.901 106.623Z" fill="#DAD0D0"/>
<path d="M131.246 102.633L136.901 106.623L148 98.772L142.346 94.7179L131.246 102.633Z" fill="#F7F2F2"/>
<path d="M131.246 102.376V102.504L136.901 106.558V106.365L131.246 102.376Z" fill="#D0C6C6"/>
<path d="M136.901 106.365V106.558L148 98.6434V98.5147L136.901 106.365Z" fill="#DAD0D0"/>
<path d="M131.246 102.376L136.901 106.365L148 98.5146L142.346 94.5249L131.246 102.376Z" fill="#F7F2F2"/>
<path d="M131.246 102.118V102.247L136.901 106.301V106.172L131.246 102.118Z" fill="#D0C6C6"/>
<path d="M136.901 106.172V106.301L148 98.386V98.2573L136.901 106.172Z" fill="#DAD0D0"/>
<path d="M131.246 102.118L136.901 106.172L148 98.2571L142.346 94.2675L131.246 102.118Z" fill="#F7F2F2"/>
<path d="M131.246 101.925V102.054L136.901 106.043V105.915L131.246 101.925Z" fill="#D0C6C6"/>
<path d="M136.901 105.915V106.044L148 98.1929V97.9999L136.901 105.915Z" fill="#DAD0D0"/>
<path d="M131.246 101.925L136.901 105.915L148 97.9997L142.346 94.0101L131.246 101.925Z" fill="#F7F2F2"/>
<path d="M131.246 101.668V101.796L136.901 105.786V105.657L131.246 101.668Z" fill="#D0C6C6"/>
<path d="M136.901 105.657V105.786L148 97.9354V97.8067L136.901 105.657Z" fill="#DAD0D0"/>
<path d="M131.246 101.668L136.901 105.657L148 97.8068L142.346 93.7527L131.246 101.668Z" fill="#F7F2F2"/>
<path d="M131.246 101.41V101.539L136.901 105.593V105.4L131.246 101.41Z" fill="#D0C6C6"/>
<path d="M136.901 105.4V105.593L148 97.6782V97.5495L136.901 105.4Z" fill="#DAD0D0"/>
<path d="M131.246 101.41L136.901 105.4L148 97.5494L142.346 93.5597L131.246 101.41Z" fill="#F7F2F2"/>
<path d="M131.246 101.153V101.282L136.901 105.271V105.143L131.246 101.153Z" fill="#D0C6C6"/>
<path d="M136.901 105.143V105.272L148 97.4209V97.2921L136.901 105.143Z" fill="#DAD0D0"/>
<path d="M131.246 101.153L136.901 105.143L148 97.2922L142.346 93.2381L131.246 101.153Z" fill="#F7F2F2"/>
<path d="M131.246 100.896V101.024L136.901 105.014V104.885L131.246 100.896Z" fill="#D0C6C6"/>
<path d="M136.901 104.885V105.014L148 97.1633V97.0347L136.901 104.885Z" fill="#DAD0D0"/>
<path d="M131.246 100.896L136.901 104.885L148 97.0346L142.346 93.0449L131.246 100.896Z" fill="#F7F2F2"/>
<path d="M131.246 100.638V100.767L136.901 104.821V104.692L131.246 100.638Z" fill="#D0C6C6"/>
<path d="M136.901 104.692V104.821L148 96.9059V96.7773L136.901 104.692Z" fill="#DAD0D0"/>
<path d="M131.246 100.638L136.901 104.692L148 96.7772L142.346 92.7875L131.246 100.638Z" fill="#F7F2F2"/>
<path d="M131.246 100.381V100.574L136.901 104.564V104.435L131.246 100.381Z" fill="#D0C6C6"/>
<path d="M136.901 104.435V104.564L148 96.7129V96.5199L136.901 104.435Z" fill="#DAD0D0"/>
<path d="M131.246 100.381L136.901 104.435L148 96.5198L142.346 92.5302L131.246 100.381Z" fill="#F7F2F2"/>
<path d="M131.246 100.188V100.316L136.901 104.306V104.177L131.246 100.188Z" fill="#D0C6C6"/>
<path d="M136.901 104.177V104.306L148 96.4554V96.3267L136.901 104.177Z" fill="#DAD0D0"/>
<path d="M131.246 100.188L136.901 104.177L148 96.3267L142.346 92.2727L131.246 100.188Z" fill="#F7F2F2"/>
<path d="M131.246 99.9305V100.059L136.901 104.049V103.92L131.246 99.9305Z" fill="#D0C6C6"/>
<path d="M136.901 103.92V104.049L148 96.1982V96.0695L136.901 103.92Z" fill="#DAD0D0"/>
<path d="M131.246 99.9304L136.901 103.92L148 96.0694L142.346 92.0797L131.246 99.9304Z" fill="#F7F2F2"/>
<path d="M131.246 99.6731V99.8018L136.901 103.856V103.727L131.246 99.6731Z" fill="#D0C6C6"/>
<path d="M136.901 103.727V103.856L148 95.9408V95.8121L136.901 103.727Z" fill="#DAD0D0"/>
<path d="M131.246 99.673L136.901 103.727L148 95.812L142.346 91.8223L131.246 99.673Z" fill="#F7F2F2"/>
<path d="M131.246 99.4157V99.6087L136.901 103.598V103.47L131.246 99.4157Z" fill="#D0C6C6"/>
<path d="M136.901 103.47V103.598L148 95.7477V95.5547L136.901 103.47Z" fill="#DAD0D0"/>
<path d="M131.246 99.4155L136.901 103.47L148 95.5546L142.346 91.5649L131.246 99.4155Z" fill="#F7F2F2"/>
<path d="M135.173 103.663C135.068 103.148 134.126 102.633 133.812 102.504C132.974 102.183 131.141 100.188 129.78 99.673C129.204 99.4799 128.576 99.2869 128.366 100.059C128.262 100.445 128.157 101.024 128.524 101.41C128.837 101.732 131.874 103.341 133.707 104.435C133.916 104.564 133.969 104.371 134.178 104.306C134.44 104.049 135.225 103.984 135.173 103.663Z" fill="#FFBFA2"/>
<path d="M135.487 103.534C135.54 103.598 135.591 103.598 135.644 103.727C135.696 103.856 135.696 103.985 135.696 104.113C135.696 104.306 135.591 104.435 135.487 104.499C135.487 104.499 135.382 104.499 135.382 104.564C135.382 104.564 135.382 104.628 135.435 104.628C135.54 104.885 135.382 105.207 134.963 105.143C134.807 105.786 133.393 104.95 133.026 104.371C132.921 104.178 132.765 103.985 132.765 103.727C132.765 103.212 133.288 102.633 133.707 102.698C134.021 102.698 134.387 102.762 134.702 102.826C134.911 102.891 135.173 102.955 135.33 103.148C135.435 103.212 135.54 103.341 135.54 103.534C135.487 103.47 135.487 103.47 135.487 103.534Z" fill="#FFBFA2"/>
<path d="M81.665 142.144V142.337L89.5708 148V147.807L81.665 142.144Z" fill="#D0C6C6"/>
<path d="M89.5708 147.807V148L100.042 140.535V140.342L89.5708 147.807Z" fill="#DAD0D0"/>
<path d="M81.665 142.144L89.5708 147.807L100.042 140.342L92.1362 134.679L81.665 142.144Z" fill="#F7F2F2"/>
<path d="M81.665 141.822V142.015L89.5708 147.613V147.42L81.665 141.822Z" fill="#D0C6C6"/>
<path d="M89.5708 147.42V147.613L100.042 140.149V139.955L89.5708 147.42Z" fill="#DAD0D0"/>
<path d="M81.665 141.822L89.5708 147.42L100.042 139.956L92.1362 134.357L81.665 141.822Z" fill="#F7F2F2"/>
<path d="M81.665 141.5V141.693L89.5708 147.292V147.098L81.665 141.5Z" fill="#D0C6C6"/>
<path d="M89.5708 147.098V147.292L100.042 139.827V139.634L89.5708 147.098Z" fill="#DAD0D0"/>
<path d="M81.665 141.5L89.5708 147.098L100.042 139.634L92.1362 134.036L81.665 141.5Z" fill="#F7F2F2"/>
<path d="M81.665 141.179V141.371L89.5708 146.97V146.777L81.665 141.179Z" fill="#D0C6C6"/>
<path d="M89.5708 146.777V146.97L100.042 139.506V139.313L89.5708 146.777Z" fill="#DAD0D0"/>
<path d="M81.665 141.179L89.5708 146.777L100.042 139.313L92.1362 133.714L81.665 141.179Z" fill="#F7F2F2"/>
<path d="M81.665 140.792V140.986L89.5708 146.648V146.391L81.665 140.792Z" fill="#D0C6C6"/>
<path d="M89.5708 146.391V146.648L100.042 139.184V138.991L89.5708 146.391Z" fill="#DAD0D0"/>
<path d="M81.665 140.792L89.5708 146.391L100.042 138.991L92.1362 133.328L81.665 140.792Z" fill="#F7F2F2"/>
<path d="M81.665 140.471V140.664L89.5708 146.262V146.069L81.665 140.471Z" fill="#D0C6C6"/>
<path d="M89.5708 146.069V146.262L100.042 138.797V138.605L89.5708 146.069Z" fill="#DAD0D0"/>
<path d="M81.665 140.471L89.5708 146.069L100.042 138.605L92.1362 133.007L81.665 140.471Z" fill="#F7F2F2"/>
<path d="M81.665 140.149V140.342L89.5708 145.94V145.747L81.665 140.149Z" fill="#D0C6C6"/>
<path d="M89.5708 145.747V145.94L100.042 138.476V138.283L89.5708 145.747Z" fill="#DAD0D0"/>
<path d="M81.665 140.149L89.5708 145.747L100.042 138.283L92.1362 132.685L81.665 140.149Z" fill="#F7F2F2"/>
<path d="M81.665 139.827V140.02L89.5708 145.618V145.426L81.665 139.827Z" fill="#D0C6C6"/>
<path d="M89.5708 145.425V145.618L100.042 138.154V137.961L89.5708 145.425Z" fill="#DAD0D0"/>
<path d="M81.665 139.763L89.5708 145.426L100.042 137.961L92.1362 132.363L81.665 139.763Z" fill="#F7F2F2"/>
<path d="M81.665 139.441V139.634L89.5708 145.233V145.039L81.665 139.441Z" fill="#D0C6C6"/>
<path d="M89.5708 145.039V145.233L100.042 137.768V137.575L89.5708 145.039Z" fill="#DAD0D0"/>
<path d="M81.665 139.441L89.5708 145.039L100.042 137.575L92.1362 131.976L81.665 139.441Z" fill="#F7F2F2"/>
<path d="M81.665 139.119V139.313L89.5708 144.911V144.718L81.665 139.119Z" fill="#D0C6C6"/>
<path d="M89.5708 144.718V144.911L100.042 137.446V137.253L89.5708 144.718Z" fill="#DAD0D0"/>
<path d="M81.665 139.119L89.5708 144.718L100.042 137.253L92.1362 131.654L81.665 139.119Z" fill="#F7F2F2"/>
<path d="M81.665 138.797V138.991L89.5708 144.589V144.396L81.665 138.797Z" fill="#D0C6C6"/>
<path d="M89.5708 144.396V144.589L100.042 137.124V136.931L89.5708 144.396Z" fill="#DAD0D0"/>
<path d="M81.665 138.797L89.5708 144.396L100.042 136.932L92.1362 131.333L81.665 138.797Z" fill="#F7F2F2"/>
<path d="M81.665 138.412V138.605L89.5708 144.267V144.01L81.665 138.412Z" fill="#D0C6C6"/>
<path d="M89.5708 144.01V144.267L100.042 136.803V136.61L89.5708 144.01Z" fill="#DAD0D0"/>
<path d="M81.665 138.412L89.5708 144.01L100.042 136.61L92.1362 130.947L81.665 138.412Z" fill="#F7F2F2"/>
<path d="M81.665 138.09V138.283L89.5708 143.881V143.688L81.665 138.09Z" fill="#D0C6C6"/>
<path d="M89.5708 143.688V143.881L100.042 136.417V136.223L89.5708 143.688Z" fill="#DAD0D0"/>
<path d="M81.665 138.09L89.5708 143.688L100.042 136.223L92.1362 130.625L81.665 138.09Z" fill="#F7F2F2"/>
<path d="M81.665 137.768V137.961L89.5708 143.56V143.366L81.665 137.768Z" fill="#D0C6C6"/>
<path d="M89.5708 143.366V143.56L100.042 136.095V135.902L89.5708 143.366Z" fill="#DAD0D0"/>
<path d="M81.665 137.768L89.5708 143.366L100.042 135.902L92.1362 130.303L81.665 137.768Z" fill="#F7F2F2"/>
<path d="M81.665 137.446V137.639L89.5708 143.238V143.045L81.665 137.446Z" fill="#D0C6C6"/>
<path d="M89.5708 143.045V143.238L100.042 135.773V135.581L89.5708 143.045Z" fill="#DAD0D0"/>
<path d="M81.665 137.382L89.5708 143.045L100.042 135.581L92.1362 129.982L81.665 137.382Z" fill="#F7F2F2"/>
<path d="M81.665 137.06V137.253L89.5708 142.916V142.659L81.665 137.06Z" fill="#D0C6C6"/>
<path d="M89.5708 142.659V142.852L100.042 135.451V135.259L89.5708 142.659Z" fill="#DAD0D0"/>
<path d="M81.665 137.06L89.5708 142.659L100.042 135.259L92.1362 129.596L81.665 137.06Z" fill="#F7F2F2"/>
<path d="M92.1363 129.596L91.1938 130.239C91.1938 130.303 91.2462 130.368 91.2462 130.432C92.1363 132.813 94.6493 133.328 95.6965 135.709C96.0106 136.352 96.22 137.06 96.4818 137.768L100.042 135.259L92.1363 129.596Z" fill="#D93F48"/>
<path d="M90.8273 130.818C90.8273 130.754 90.7749 130.625 90.7749 130.561L89.0995 131.719C89.4136 133.586 88.7854 135.58 87.4241 136.417C86.2199 137.189 84.911 137.768 83.8115 138.605L89.5183 142.659L92.3456 140.664C92.555 140.149 92.7121 139.698 92.8691 139.119C93.8115 136.095 91.7173 133.521 90.8273 130.818Z" fill="#FFD438"/>
<path d="M82.241 135.516V135.709L90.1467 141.308V141.114L82.241 135.516Z" fill="#D0C6C6"/>
<path d="M90.1467 141.114V141.307L100.67 133.843V133.649L90.1467 141.114Z" fill="#DAD0D0"/>
<path d="M82.241 135.516L90.1467 141.114L100.67 133.649L92.7645 128.051L82.241 135.516Z" fill="#F7F2F2"/>
<path d="M82.241 135.129V135.387L90.1467 140.986V140.792L82.241 135.129Z" fill="#D0C6C6"/>
<path d="M90.1467 140.792V140.986L100.67 133.521V133.328L90.1467 140.792Z" fill="#DAD0D0"/>
<path d="M82.241 135.129L90.1467 140.792L100.67 133.328L92.7645 127.729L82.241 135.129Z" fill="#F7F2F2"/>
<path d="M82.241 134.808V135.001L90.1467 140.599V140.407L82.241 134.808Z" fill="#D0C6C6"/>
<path d="M90.1467 140.407V140.599L100.67 133.199V132.942L90.1467 140.407Z" fill="#DAD0D0"/>
<path d="M82.241 134.808L90.1467 140.407L100.67 132.942L92.7645 127.343L82.241 134.808Z" fill="#F7F2F2"/>
<path d="M82.241 134.486V134.679L90.1467 140.278V140.085L82.241 134.486Z" fill="#D0C6C6"/>
<path d="M90.1467 140.085V140.277L100.67 132.813V132.62L90.1467 140.085Z" fill="#DAD0D0"/>
<path d="M82.241 134.486L90.1467 140.085L100.67 132.62L92.7645 127.022L82.241 134.486Z" fill="#F7F2F2"/>
<path d="M82.241 134.165V134.358L90.1467 139.956V139.763L82.241 134.165Z" fill="#D0C6C6"/>
<path d="M90.1467 139.763V139.956L100.67 132.491V132.298L90.1467 139.763Z" fill="#DAD0D0"/>
<path d="M82.241 134.165L90.1467 139.763L100.67 132.298L92.7645 126.7L82.241 134.165Z" fill="#F7F2F2"/>
<path d="M82.241 133.778V133.971L90.1467 139.634V139.441L82.241 133.778Z" fill="#D0C6C6"/>
<path d="M90.1467 139.441V139.634L100.67 132.17V131.976L90.1467 139.441Z" fill="#DAD0D0"/>
<path d="M82.241 133.778L90.1467 139.441L100.67 131.976L92.7645 126.378L82.241 133.778Z" fill="#F7F2F2"/>
<path d="M82.241 133.457V133.649L90.1467 139.248V139.055L82.241 133.457Z" fill="#D0C6C6"/>
<path d="M90.1467 139.055V139.248L100.67 131.848V131.591L90.1467 139.055Z" fill="#DAD0D0"/>
<path d="M82.241 133.457L90.1467 139.055L100.67 131.591L92.7645 125.992L82.241 133.457Z" fill="#F7F2F2"/>
<path d="M82.241 133.135V133.328L90.1467 138.926V138.734L82.241 133.135Z" fill="#D0C6C6"/>
<path d="M90.1467 138.734V138.926L100.67 131.462V131.269L90.1467 138.734Z" fill="#DAD0D0"/>
<path d="M82.241 133.135L90.1467 138.734L100.67 131.269L92.7645 125.67L82.241 133.135Z" fill="#F7F2F2"/>
<path d="M82.241 132.749V133.007L90.1467 138.605V138.412L82.241 132.749Z" fill="#D0C6C6"/>
<path d="M90.1467 138.412V138.605L100.67 131.14V130.947L90.1467 138.412Z" fill="#DAD0D0"/>
<path d="M82.241 132.749L90.1467 138.412L100.67 130.947L92.7645 125.349L82.241 132.749Z" fill="#F7F2F2"/>
<path d="M82.241 132.427V132.62L90.1467 138.218V138.025L82.241 132.427Z" fill="#D0C6C6"/>
<path d="M90.1467 138.025V138.218L100.67 130.818V130.561L90.1467 138.025Z" fill="#DAD0D0"/>
<path d="M82.241 132.427L90.1467 138.025L100.67 130.561L92.7645 124.962L82.241 132.427Z" fill="#F7F2F2"/>
<path d="M82.241 132.105V132.298L90.1467 137.897V137.703L82.241 132.105Z" fill="#D0C6C6"/>
<path d="M90.1467 137.703V137.897L100.67 130.432V130.239L90.1467 137.703Z" fill="#DAD0D0"/>
<path d="M82.241 132.105L90.1467 137.703L100.67 130.239L92.7645 124.641L82.241 132.105Z" fill="#F7F2F2"/>
<path d="M82.241 131.784V131.976L90.1467 137.575V137.382L82.241 131.784Z" fill="#D0C6C6"/>
<path d="M90.1467 137.382V137.575L100.67 130.11V129.917L90.1467 137.382Z" fill="#DAD0D0"/>
<path d="M82.241 131.784L90.1467 137.382L100.67 129.917L92.7645 124.319L82.241 131.784Z" fill="#F7F2F2"/>
<path d="M82.241 131.397V131.591L90.1467 137.253V137.06L82.241 131.397Z" fill="#D0C6C6"/>
<path d="M90.1467 137.06V137.253L100.67 129.789V129.596L90.1467 137.06Z" fill="#DAD0D0"/>
<path d="M82.241 131.397L90.1467 137.06L100.67 129.596L92.7645 123.997L82.241 131.397Z" fill="#F7F2F2"/>
<path d="M82.241 131.076V131.269L90.1467 136.867V136.674L82.241 131.076Z" fill="#D0C6C6"/>
<path d="M90.1467 136.674V136.867L100.67 129.467V129.209L90.1467 136.674Z" fill="#DAD0D0"/>
<path d="M82.241 131.075L90.1467 136.674L100.67 129.21L92.7645 123.611L82.241 131.075Z" fill="#F7F2F2"/>
<path d="M82.241 130.754V130.947L90.1467 136.545V136.353L82.241 130.754Z" fill="#D0C6C6"/>
<path d="M90.1467 136.352V136.545L100.67 129.081V128.888L90.1467 136.352Z" fill="#DAD0D0"/>
<path d="M82.241 130.754L90.1467 136.353L100.67 128.888L92.7645 123.289L82.241 130.754Z" fill="#F7F2F2"/>
<path d="M82.241 130.432V130.625L90.1467 136.223V136.031L82.241 130.432Z" fill="#D0C6C6"/>
<path d="M90.1467 136.031V136.223L100.67 128.759V128.566L90.1467 136.031Z" fill="#DAD0D0"/>
<path d="M82.241 130.432L90.1467 136.031L100.67 128.566L92.7645 122.968L82.241 130.432Z" fill="#F7F2F2"/>
<path d="M92.7644 122.968L91.822 123.611C91.822 123.676 91.8744 123.74 91.8744 123.804C92.7644 126.185 95.2775 126.7 96.3246 129.081C96.6388 129.724 96.8482 130.432 97.11 131.14L100.67 128.63L92.7644 122.968Z" fill="#D93F48"/>
<path d="M91.4556 124.126C91.4556 124.062 91.4033 123.933 91.4033 123.869L89.7279 125.027C90.042 126.893 89.4138 128.888 88.0525 129.724C86.8483 130.497 85.5394 131.075 84.4399 131.912L90.1467 135.966L92.974 133.971C93.1833 133.457 93.3404 133.007 93.4975 132.427C94.3876 129.403 92.3457 126.893 91.4556 124.126Z" fill="#FFD438"/>
<path d="M78.7854 140.793V140.986L70.8796 146.584V146.392L78.7854 140.793Z" fill="#D0C6C6"/>
<path d="M70.8796 146.392V146.584L60.4084 139.119V138.927L70.8796 146.392Z" fill="#DAD0D0"/>
<path d="M78.7854 140.793L70.8796 146.392L60.4084 138.927L68.3142 133.328L78.7854 140.793Z" fill="#F7F2F2"/>
<path d="M78.7854 140.471V140.664L70.8796 146.262V146.07L78.7854 140.471Z" fill="#D0C6C6"/>
<path d="M70.8796 146.07V146.262L60.4084 138.798V138.605L70.8796 146.07Z" fill="#DAD0D0"/>
<path d="M78.7854 140.471L70.8796 146.07L60.4084 138.605L68.3142 133.007L78.7854 140.471Z" fill="#F7F2F2"/>
<path d="M78.7854 140.085V140.278L70.8796 145.941V145.748L78.7854 140.085Z" fill="#D0C6C6"/>
<path d="M70.8796 145.748V145.941L60.4084 138.476V138.283L70.8796 145.748Z" fill="#DAD0D0"/>
<path d="M78.7854 140.085L70.8796 145.748L60.4084 138.283L68.3142 132.62L78.7854 140.085Z" fill="#F7F2F2"/>
<path d="M78.7854 139.763V139.956L70.8796 145.555V145.361L78.7854 139.763Z" fill="#D0C6C6"/>
<path d="M70.8796 145.361V145.555L60.4084 138.09V137.897L70.8796 145.361Z" fill="#DAD0D0"/>
<path d="M78.7854 139.763L70.8796 145.361L60.4084 137.897L68.3142 132.299L78.7854 139.763Z" fill="#F7F2F2"/>
<path d="M78.7854 139.441V139.634L70.8796 145.233V145.039L78.7854 139.441Z" fill="#D0C6C6"/>
<path d="M70.8796 145.039V145.233L60.4084 137.768V137.576L70.8796 145.039Z" fill="#DAD0D0"/>
<path d="M78.7854 139.441L70.8796 145.039L60.4084 137.576L68.3142 131.977L78.7854 139.441Z" fill="#F7F2F2"/>
<path d="M78.7854 139.119V139.313L70.8796 144.911V144.718L78.7854 139.119Z" fill="#D0C6C6"/>
<path d="M70.8796 144.718V144.911L60.4084 137.446V137.254L70.8796 144.718Z" fill="#DAD0D0"/>
<path d="M78.7854 139.119L70.8796 144.718L60.4084 137.254L68.3142 131.655L78.7854 139.119Z" fill="#F7F2F2"/>
<path d="M78.7854 138.734V138.927L70.8796 144.589V144.397L78.7854 138.734Z" fill="#D0C6C6"/>
<path d="M70.8796 144.397V144.589L60.4084 137.125V136.932L70.8796 144.397Z" fill="#DAD0D0"/>
<path d="M78.7854 138.734L70.8796 144.397L60.4084 136.932L68.3142 131.269L78.7854 138.734Z" fill="#F7F2F2"/>
<path d="M78.7854 138.412V138.605L70.8796 144.203V144.01L78.7854 138.412Z" fill="#D0C6C6"/>
<path d="M70.8796 144.01V144.203L60.4084 136.739V136.545L70.8796 144.01Z" fill="#DAD0D0"/>
<path d="M78.7854 138.412L70.8796 144.01L60.4084 136.545L68.3142 130.947L78.7854 138.412Z" fill="#F7F2F2"/>
<path d="M78.7854 138.09V138.283L70.8796 143.881V143.688L78.7854 138.09Z" fill="#D0C6C6"/>
<path d="M70.8796 143.688V143.881L60.4084 136.417V136.223L70.8796 143.688Z" fill="#DAD0D0"/>
<path d="M78.7854 138.09L70.8796 143.688L60.4084 136.224L68.3142 130.625L78.7854 138.09Z" fill="#F7F2F2"/>
<path d="M78.7854 137.704V137.897L70.8796 143.56V143.366L78.7854 137.704Z" fill="#D0C6C6"/>
<path d="M70.8796 143.366V143.56L60.4084 136.095V135.902L70.8796 143.366Z" fill="#DAD0D0"/>
<path d="M78.7854 137.704L70.8796 143.366L60.4084 135.902L68.3142 130.239L78.7854 137.704Z" fill="#F7F2F2"/>
<path d="M78.7854 137.382V137.576L70.8796 143.174V142.981L78.7854 137.382Z" fill="#D0C6C6"/>
<path d="M70.8796 142.981V143.174L60.4084 135.709V135.516L70.8796 142.981Z" fill="#DAD0D0"/>
<path d="M78.7854 137.382L70.8796 142.981L60.4084 135.516L68.3142 129.918L78.7854 137.382Z" fill="#F7F2F2"/>
<path d="M78.7854 137.06V137.254L70.8796 142.852V142.659L78.7854 137.06Z" fill="#D0C6C6"/>
<path d="M70.8796 142.659V142.852L60.4084 135.387V135.194L70.8796 142.659Z" fill="#DAD0D0"/>
<path d="M78.7854 137.06L70.8796 142.659L60.4084 135.194L68.3142 129.596L78.7854 137.06Z" fill="#F7F2F2"/>
<path d="M78.7854 136.739V136.932L70.8796 142.53V142.337L78.7854 136.739Z" fill="#D0C6C6"/>
<path d="M70.8796 142.337V142.53L60.4084 135.065V134.872L70.8796 142.337Z" fill="#DAD0D0"/>
<path d="M78.7854 136.739L70.8796 142.337L60.4084 134.872L68.3142 129.274L78.7854 136.739Z" fill="#F7F2F2"/>
<path d="M78.7854 136.353V136.545L70.8796 142.208V142.015L78.7854 136.353Z" fill="#D0C6C6"/>
<path d="M70.8796 142.015V142.208L60.4084 134.744V134.551L70.8796 142.015Z" fill="#DAD0D0"/>
<path d="M78.7854 136.353L70.8796 142.015L60.4084 134.551L68.3142 128.888L78.7854 136.353Z" fill="#F7F2F2"/>
<path d="M78.7854 136.031V136.224L70.8796 141.823V141.629L78.7854 136.031Z" fill="#D0C6C6"/>
<path d="M70.8796 141.629V141.823L60.4084 134.358V134.165L70.8796 141.629Z" fill="#DAD0D0"/>
<path d="M78.7854 136.031L70.8796 141.629L60.4084 134.165L68.3142 128.566L78.7854 136.031Z" fill="#F7F2F2"/>
<path d="M78.7854 135.709V135.902L70.8796 141.501V141.308L78.7854 135.709Z" fill="#D0C6C6"/>
<path d="M70.8796 141.307V141.501L60.4084 134.036V133.843L70.8796 141.307Z" fill="#DAD0D0"/>
<path d="M78.7854 135.709L70.8796 141.307L60.4084 133.843L68.3142 128.244L78.7854 135.709Z" fill="#F7F2F2"/>
<path d="M68.3142 128.244L69.2566 128.888C69.2566 128.952 69.2043 129.017 69.2043 129.081C68.3142 131.462 65.8011 131.976 64.754 134.358C64.4399 135.002 64.2304 135.709 63.9687 136.417L60.4084 133.907L68.3142 128.244Z" fill="#D93F48"/>
<path d="M69.623 129.467C69.623 129.403 69.6754 129.274 69.6754 129.21L71.3507 130.368C71.0366 132.234 71.6649 134.229 73.0261 135.065C74.2303 135.838 75.5393 136.417 76.6388 137.254L70.8795 141.308L68.0523 139.313C67.8429 138.797 67.6859 138.347 67.5288 137.768C66.6387 134.68 68.7329 132.17 69.623 129.467Z" fill="#FFD438"/>
<defs>
<radialGradient id="paint0_radial_1_4738" cx="0" cy="0" r="1" gradientUnits="userSpaceOnUse" gradientTransform="translate(62 19) rotate(67.1736) scale(192.04)">
<stop offset="0.628125" stop-color="#1C68FB"/>
<stop offset="1" stop-color="#1C68FB" stop-opacity="0"/>
</radialGradient>
<radialGradient id="paint1_radial_1_4738" cx="0" cy="0" r="1" gradientUnits="userSpaceOnUse" gradientTransform="translate(123 145.5) rotate(-114.131) scale(121.081)">
<stop stop-color="#5DD6E9"/>
<stop offset="1" stop-color="#5DD6E9" stop-opacity="0"/>
</radialGradient>
</defs>
</svg>
